<svg width="115" height="63" viewBox="0 0 115 63" fill="none" xmlns="http://www.w3.org/2000/svg">
<path d="M77.8564 34.0536C78.3396 34.0781 78.7472 34.116 79.1325 34.116C81.618 34.116 84.1058 34.1338 86.5913 34.116C87.2438 34.116 87.7539 34.2741 88.0456 34.9066C88.1457 35.1058 88.1975 35.3258 88.1967 35.5488C88.1959 35.7717 88.1426 35.9913 88.0411 36.1898C87.9396 36.3883 87.7927 36.5601 87.6124 36.6912C87.4321 36.8223 87.2234 36.9091 87.0033 36.9445C86.7455 36.9757 86.4854 36.9846 86.226 36.9712C83.108 36.9712 79.99 36.9712 76.872 36.9712C75.3953 36.9712 74.8831 36.4612 74.8809 34.9668C74.8809 30.5258 74.8809 26.0826 74.8697 21.6394C74.8697 20.3566 74.304 19.537 73.215 19.1651C72.9175 19.0603 72.6022 19.0159 72.2874 19.0344C71.9727 19.0529 71.6647 19.134 71.3817 19.273C71.0986 19.4119 70.8461 19.6059 70.6389 19.8436C70.4317 20.0813 70.2739 20.3579 70.1749 20.6573C70.022 21.189 69.9521 21.7412 69.9678 22.2942C69.9522 28.8465 69.9366 35.3988 69.9566 41.9511C69.9566 43.842 69.2417 45.3364 67.7295 46.4166C65.9745 47.6683 64.0435 47.8108 62.1616 46.8219C60.3798 45.8888 59.2952 44.3721 59.2774 42.2763C59.2551 39.0202 59.2551 35.7685 59.2551 32.5102C59.2551 26.5132 59.2507 20.5162 59.2418 14.5192C59.2543 14.0406 59.2057 13.5623 59.097 13.0961C58.9641 12.5511 58.6434 12.0705 58.1913 11.7385C57.7392 11.4066 57.1846 11.2445 56.6248 11.2809C56.0472 11.3346 55.506 11.5871 55.0938 11.9953C54.6815 12.4035 54.4237 12.9421 54.3643 13.5192C54.3385 13.8898 54.3318 14.2615 54.3442 14.6328C54.3442 22.5184 54.339 30.4041 54.3286 38.2897C54.3286 40.548 53.244 42.2117 51.1995 43.1182C47.5937 44.7195 43.8699 42.0046 43.8632 38.5636C43.8632 34.4167 43.8632 30.2697 43.8454 26.1249C43.852 25.6086 43.7837 25.0939 43.6427 24.5971C43.4933 24.092 43.1835 23.6491 42.7602 23.3355C42.337 23.0218 41.8232 22.8544 41.2964 22.8584C40.7696 22.8624 40.2584 23.0377 39.84 23.3578C39.4215 23.6779 39.1186 24.1254 38.9768 24.6327C38.8425 25.1308 38.7765 25.6448 38.7809 26.1606C38.763 29.2786 38.7497 32.381 38.7809 35.4902C38.7809 36.3498 38.4356 36.9623 37.6539 37.1761C37.4717 37.2141 37.2852 37.2276 37.0993 37.2162C33.723 37.2162 30.3444 37.234 26.968 37.2162C25.7364 37.2162 25.046 36.3075 25.3956 35.2608C25.4563 35.0255 25.5836 34.8128 25.7621 34.6481C25.9407 34.4833 26.1629 34.3736 26.4023 34.332C26.8391 34.2487 27.2828 34.2062 27.7275 34.2051C29.988 34.2251 32.2508 34.2719 34.5136 34.2986C34.91 34.2986 35.3087 34.2563 35.8031 34.2274C35.8232 33.7485 35.8544 33.3521 35.8544 32.9579C35.8544 30.4412 35.8967 27.9223 35.841 25.4056C35.8338 24.0473 36.332 22.7349 37.2387 21.7236C38.1454 20.7123 39.3959 20.0744 40.7468 19.9338C42.0978 19.7933 43.4528 20.1602 44.5482 20.9632C45.6437 21.7663 46.4014 22.948 46.6739 24.2786C46.7554 24.7521 46.7868 25.2329 46.7674 25.7129C46.7674 29.6743 46.7674 33.6357 46.7674 37.597C46.7533 37.9298 46.7615 38.2631 46.7919 38.5948C46.857 39.1142 47.0973 39.5959 47.473 39.9603C47.8488 40.3247 48.3376 40.5501 48.8587 40.5993C49.3981 40.6657 49.943 40.5312 50.3896 40.2215C50.8361 39.9117 51.1529 39.4484 51.2797 38.92C51.3892 38.4538 51.4379 37.9755 51.4244 37.4968C51.4244 29.7211 51.4192 21.9468 51.4088 14.174C51.4088 12.9602 51.5781 11.8199 52.2463 10.7843C52.8527 9.84027 53.7401 9.11043 54.7834 8.69766C55.8267 8.2849 56.9732 8.21003 58.0614 8.48362C59.1729 8.73347 60.173 9.33815 60.9106 10.2064C61.6483 11.0746 62.0834 12.1592 62.1504 13.2965C62.1727 13.7419 62.166 14.1874 62.166 14.6328C62.166 23.5904 62.166 32.5488 62.166 41.5079C62.1559 42.0935 62.2713 42.6745 62.5045 43.2117C62.7218 43.6662 63.0814 44.0374 63.5288 44.2689C63.9762 44.5005 64.4869 44.5797 64.9834 44.4946C66.1504 44.2473 66.921 43.4567 67.0569 42.3209C67.0871 41.9505 67.0938 41.5785 67.0769 41.2073C67.0769 34.6178 67.0769 28.0284 67.0769 21.439C67.0769 18.9891 68.5736 16.9691 70.9188 16.3165C74.5713 15.2987 77.6002 17.958 77.7539 20.7909C77.8051 21.7085 77.7806 22.6305 77.7806 23.5526C77.7806 26.6706 77.7806 29.7708 77.7806 32.8799C77.7717 33.2407 77.8229 33.5993 77.8564 34.0536Z" fill="url(#paint0_linear_126_380)"/>
<path d="M44.3555 14.7709C44.3339 15.3909 44.1295 15.9907 43.7679 16.4949C43.4064 16.9991 42.9039 17.3852 42.3236 17.6046C41.7433 17.8241 41.1111 17.8671 40.5064 17.7283C39.9018 17.5895 39.3516 17.2751 38.9251 16.8246C38.4986 16.374 38.2147 15.8074 38.1093 15.1961C38.0038 14.5847 38.0814 13.9558 38.3323 13.3884C38.5832 12.821 38.9963 12.3404 39.5195 12.007C40.0427 11.6737 40.6528 11.5024 41.2731 11.5148C41.6915 11.5191 42.1047 11.6076 42.4881 11.775C42.8715 11.9424 43.2173 12.1852 43.5049 12.4891C43.7925 12.7929 44.0161 13.1515 44.1622 13.5435C44.3083 13.9355 44.3741 14.3529 44.3555 14.7709Z" fill="#B111BB"/>
<path d="M69.4577 10.9023C69.3396 9.28537 70.7316 7.8199 72.5311 7.78427C72.9473 7.7831 73.3597 7.86392 73.7446 8.0221C74.1296 8.18029 74.4796 8.41276 74.7748 8.70622C75.0699 8.99969 75.3043 9.34841 75.4647 9.73247C75.625 10.1165 75.7081 10.5284 75.7093 10.9446C75.7105 11.3608 75.6297 11.7731 75.4715 12.1581C75.3133 12.5431 75.0808 12.8931 74.7874 13.1882C74.4939 13.4833 74.1452 13.7178 73.7611 13.8781C73.377 14.0385 72.9652 14.1216 72.549 14.1228C71.0835 14.1406 69.3285 12.8666 69.4577 10.9023Z" fill="url(#paint1_linear_126_380)"/>
<path d="M59.9007 3.18519C59.929 3.61448 59.8681 4.04499 59.722 4.44963C59.5758 4.85427 59.3475 5.22428 59.0514 5.53639C58.7553 5.8485 58.3978 6.09595 58.0014 6.26318C57.605 6.43041 57.1783 6.51379 56.7481 6.50809C56.3179 6.50239 55.8935 6.40772 55.5017 6.23004C55.1099 6.05236 54.7591 5.79552 54.4713 5.47567C54.1836 5.15582 53.9652 4.77989 53.8298 4.37152C53.6944 3.96315 53.645 3.53118 53.6847 3.10278C53.698 1.37451 55.0611 -0.0686917 56.7715 0.00257741C58.7715 0.0849823 59.992 1.56604 59.9007 3.18519Z" fill="#F8834B"/>
<path d="M114.535 62.9354H111.388C110.465 61.7395 109.542 60.5398 108.584 59.2955C108.073 58.6327 107.553 57.9571 107.018 57.2628C106.924 58.2584 106.933 59.211 106.942 60.1492C106.951 61.0747 106.96 61.9863 106.869 62.9109H104.642C104.446 62.0668 104.388 52.9644 104.569 51.3074H106.929V56.5768L107.116 56.6281C107.451 56.2213 107.785 55.8141 108.12 55.4069L108.122 55.4055L108.126 55.4002C108.796 54.5854 109.466 53.7707 110.13 52.9599L110.14 52.9469C111.631 51.1181 111.634 51.1139 114.014 51.2272C114.153 51.2493 114.29 51.2813 114.424 51.323C113.76 52.14 113.104 52.949 112.444 53.7623C111.589 54.8157 110.728 55.8764 109.838 56.9711L114.535 62.9354Z" fill="#B111BB"/>
<path d="M67.3842 60.8419C65.5245 60.6837 65.0657 60.1626 64.9677 58.1136C66.0701 58.1136 67.1347 58.1136 68.2683 58.1024C68.6466 58.0987 69.0248 58.1024 69.4023 58.1062C70.1562 58.1136 70.9071 58.121 71.6492 58.069V56.0846C71.2535 56.0846 70.8647 56.0857 70.481 56.0867C69.7288 56.0886 68.9962 56.0905 68.2706 56.0846C67.9184 56.0818 67.5657 56.0851 67.213 56.0885C66.4685 56.0955 65.7238 56.1026 64.9833 56.0512C65.0657 54.1626 65.8608 53.3207 67.5623 53.2495C68.1906 53.2228 68.8215 53.2262 69.4522 53.2296C69.8232 53.2316 70.1942 53.2335 70.5645 53.2294C70.8231 53.2262 71.0805 53.2091 71.3334 53.1923C71.4312 53.1858 71.5284 53.1793 71.6247 53.1737V51.2383C71.087 51.2383 70.5585 51.2314 70.0365 51.2246C68.8825 51.2095 67.7604 51.1948 66.6425 51.2562C64.304 51.392 62.7739 52.7506 62.3508 55.0423C62.1669 56.0213 62.0981 57.0184 62.1459 58.0134C62.3018 60.9309 63.7695 62.4944 66.3775 62.8842C66.7062 62.935 67.0382 62.9625 67.3708 62.9666C68.52 62.9784 69.6692 62.9784 70.8184 62.9666C71.0966 62.9517 71.3739 62.9227 71.6492 62.8797V60.9421H70.3819C70.1021 60.9345 69.8211 60.9298 69.5394 60.9251C68.8213 60.9131 68.0993 60.901 67.3842 60.8419Z" fill="#B111BB"/>
<path d="M94.3062 62.8263V54.5858L94.4309 54.4989C95.1078 55.6737 95.7815 56.8469 96.4574 58.0238L96.8518 58.7105C97.3433 59.5663 97.8324 60.4228 98.3165 61.2708L98.3225 61.2814C98.6326 61.8245 98.9407 62.3641 99.246 62.8975H101.952C102.137 61.6704 102.11 52.1782 101.914 51.3163H99.6335C99.5853 52.4024 99.6184 53.4745 99.6514 54.54C99.7006 56.1291 99.7493 57.7034 99.5266 59.2873L94.9921 51.294H91.8563V62.9154C91.9708 62.9231 92.0841 62.9318 92.1964 62.9403C92.9247 62.9959 93.6096 63.0482 94.3062 62.8263Z" fill="#B111BB"/>
<path d="M9.49147 53.1448V51.2205C9.03735 51.2205 8.59032 51.2177 8.14824 51.215C7.2786 51.2096 6.42812 51.2043 5.58058 51.2205C4.76864 51.2378 3.95892 51.3122 3.15743 51.4432C1.74319 51.6838 0.834506 52.5657 0.458116 53.9221C0.220337 54.7342 0.0783188 55.5714 0.0349558 56.4165C-0.00986659 57.7964 -0.00176138 59.1786 0.00634277 60.5606C0.00951375 61.1013 0.0126846 61.6421 0.0126846 62.1826C0.0295524 62.4268 0.0637886 62.6694 0.115134 62.9087H2.49374V58.1247H9.45138V56.1203C9.0325 56.1203 8.62256 56.1213 8.2195 56.1223C7.43323 56.1243 6.67298 56.1262 5.92356 56.1203C5.54573 56.1173 5.16765 56.12 4.78974 56.1228C4.03392 56.1282 3.27835 56.1336 2.52715 56.0936C2.56946 54.2851 3.08394 53.6348 4.62959 53.3408C4.99735 53.2771 5.36992 53.245 5.74317 53.245C6.22755 53.2395 6.71027 53.2395 7.19243 53.2395C7.67461 53.2395 8.15629 53.2395 8.63847 53.2339C8.92416 53.2191 9.20888 53.1893 9.49147 53.1448Z" fill="#B111BB"/>
<path d="M31.7808 60.9421V62.8508C31.5393 62.9127 31.2925 62.9515 31.0436 62.9666C30.5746 62.954 30.1046 62.9508 29.6344 62.9477C28.4368 62.9396 27.2382 62.9315 26.0548 62.7684C23.8432 62.461 22.5069 60.8463 22.2552 58.6036C22.0834 57.3198 22.159 56.0149 22.478 54.7595C23.0526 52.6504 24.4067 51.4589 26.5715 51.2762C27.5001 51.1973 28.4287 51.2066 29.3573 51.2158C29.765 51.2199 30.1727 51.2239 30.5804 51.2205H31.7585V53.2384H27.9635C26.1817 53.2718 25.204 54.0958 25.0013 55.8842C24.9026 56.8413 24.8974 57.8058 24.9857 58.7639C25.1016 60.1002 25.8031 60.7439 27.1439 60.8241C28.027 60.877 28.9102 60.8978 29.7934 60.9186C30.0238 60.924 30.2542 60.9294 30.4846 60.9354C30.7587 60.9466 31.0433 60.9452 31.373 60.9435C31.5014 60.9428 31.6367 60.9421 31.7808 60.9421Z" fill="#B111BB"/>
<path d="M51.712 53.2963H55.3022V62.8998H57.8946V53.3386L61.5939 53.245V51.3319H51.712V53.2963Z" fill="#B111BB"/>
<path d="M46.4625 61.0378V62.9598C45.9373 62.9518 45.4159 62.9654 44.8979 62.9789C43.5487 63.014 42.2223 63.0485 40.9124 62.6993C39.4959 62.3296 38.7498 61.285 38.5672 59.8975C38.3158 57.986 38.3411 56.0675 38.3668 54.1232C38.3791 53.1908 38.3915 52.2514 38.3734 51.3051H40.7387C40.7474 51.4028 40.7593 51.5022 40.7712 51.6026C40.7959 51.8091 40.8211 52.0204 40.8211 52.2316C40.8211 53.8953 40.8211 55.559 40.8322 57.2249C40.8419 57.9261 40.8872 58.6263 40.9681 59.3229C41.0906 60.3853 41.6139 60.902 42.7008 60.991C43.2526 61.037 43.8089 61.0356 44.3633 61.0342C44.5876 61.0336 44.8116 61.033 45.0349 61.0356C45.3425 61.0403 45.6501 61.0395 45.9961 61.0386C46.1436 61.0382 46.2981 61.0378 46.4625 61.0378Z" fill="#B111BB"/>
<path d="M77.7106 51.2664C77.6422 51.2743 77.5773 51.2819 77.5179 51.2874C77.4793 51.3453 77.4483 51.3794 77.4261 51.4037C77.4126 51.4187 77.4022 51.43 77.3954 51.441C77.405 52.2423 77.4084 53.044 77.4117 53.846C77.4201 55.8504 77.4285 57.8557 77.5335 59.8552C77.6204 61.5167 78.7095 62.5791 80.3754 62.7817C81.4213 62.9076 82.4827 62.9243 83.5431 62.941C83.9278 62.947 84.3124 62.9531 84.6961 62.9644C84.9375 62.9493 85.1768 62.9113 85.411 62.8508V61.1047C85.2871 61.0968 85.1708 61.0869 85.0595 61.0775C84.8565 61.0603 84.67 61.0445 84.4845 61.0445C84.1575 61.0383 83.8303 61.0386 83.5031 61.039C82.9031 61.0397 82.3031 61.0403 81.705 61C80.5647 60.922 80.0413 60.3786 79.9233 59.265C79.852 58.6125 79.7919 57.9443 79.7919 57.2762V52.2829C79.7904 52.0656 79.7684 51.8493 79.7433 51.6022C79.7314 51.4847 79.7187 51.3599 79.7072 51.225C79.5198 51.225 79.3406 51.2237 79.1667 51.2224C78.8345 51.22 78.522 51.2177 78.2106 51.225C78.0392 51.2281 77.8656 51.2483 77.7106 51.2664Z" fill="#B111BB"/>
<path d="M36.1729 51.2963V62.8508C35.3589 63.0305 34.5912 62.9744 33.7613 62.9139L33.6897 62.9087V51.2963H36.1729Z" fill="#B111BB"/>
<path d="M50.2707 51.2695H47.8387C47.6271 52.6392 47.6739 62.0311 47.8966 62.8864H50.2707V51.2695Z" fill="#B111BB"/>
<path d="M89.2306 62.9711H86.9099C86.6493 62.0802 86.5736 53.0691 86.7919 51.3074H89.1549C89.3553 52.0958 89.4288 60.9265 89.2306 62.9711Z" fill="#B111BB"/>
<path fill-rule="evenodd" clip-rule="evenodd" d="M22.102 62.9331H19.376C19.0805 62.1896 18.7849 61.4555 18.4739 60.6827L18.2869 60.2182H13.2112L12.1845 62.8908H9.58986L14.4651 51.2695H17.1377L22.102 62.9331ZM15.7122 53.5971L14.0039 58.1069C14.3918 58.0989 14.767 58.1077 15.1372 58.1163C15.7308 58.1301 16.3117 58.1436 16.9122 58.0876C17.09 58.071 17.2696 58.0484 17.4517 58.0178C16.988 56.8416 16.5563 55.7436 16.0893 54.5558L15.7122 53.5971Z" fill="#B111BB"/>
<defs>
<linearGradient id="paint0_linear_126_380" x1="32.8953" y1="16.4219" x2="65.3467" y2="53.82" gradientUnits="userSpaceOnUse">
<stop stop-color="#B111BB"/>
<stop offset="0.310121" stop-color="#D93E9D"/>
<stop offset="0.6591" stop-color="#E85F76"/>
<stop offset="1" stop-color="#F8834B"/>
<stop offset="1" stop-color="#F8834B"/>
</linearGradient>
<linearGradient id="paint1_linear_126_380" x1="70.206" y1="9.09571" x2="75.2125" y2="12.6419" gradientUnits="userSpaceOnUse">
<stop offset="0.0001" stop-color="#DC52E6"/>
<stop offset="1" stop-color="#EE5463"/>
</linearGradient>
</defs>
</svg>
