<svg width="28" height="28" viewBox="0 0 28 28" fill="none" xmlns="http://www.w3.org/2000/svg">
<path fill-rule="evenodd" clip-rule="evenodd" d="M12.7189 0.682267C12.6185 0.69395 12.3134 0.728947 12.0409 0.760084C7.91386 1.23136 4.1008 3.81819 2.0083 7.56638C1.24411 8.93516 0.69006 10.6359 0.454889 12.3347C0.364972 12.9843 0.364972 15.0232 0.454889 15.6727C1.00503 19.6465 3.12418 23.0217 6.4341 25.1957C10.4829 27.8549 15.7879 28.0657 20.0729 25.7377C20.7325 25.3793 20.8753 25.2643 21.0125 24.9808C21.3458 24.2924 20.7925 23.4499 20.0456 23.5083C19.9015 23.5196 19.7138 23.5654 19.6283 23.61C19.543 23.6547 19.2501 23.8102 18.9776 23.9558C17.0627 24.978 14.7987 25.4269 12.6367 25.213C8.18142 24.7723 4.40763 21.7514 3.02273 17.5171C2.25182 15.16 2.25176 12.8452 3.02258 10.4903C4.1385 7.08086 6.79361 4.42936 10.2107 3.31192C12.5528 2.54601 14.8741 2.54752 17.2232 3.31645C19.7725 4.15084 21.8806 5.8239 23.3318 8.16435C24.178 9.52906 24.7546 11.2654 24.922 12.9531C25.1603 15.3565 24.5578 17.8581 23.2242 20.0017C22.9306 20.4736 22.916 20.5133 22.9157 20.8361C22.9153 21.2429 23.0486 21.4977 23.3743 21.7133C23.6644 21.9052 24.1747 21.9133 24.4686 21.7306C24.7816 21.536 25.4197 20.4998 25.9109 19.3887C28.3554 13.8588 26.7886 7.4035 22.0809 3.60926C20.1844 2.08072 18.0748 1.16231 15.5875 0.782407C15.0675 0.702973 13.1246 0.635171 12.7189 0.682267ZM8.66173 8.84649C8.41498 8.91842 8.09438 9.26009 8.02224 9.52807C7.89738 9.99173 8.0829 10.4791 8.47772 10.7245L8.6768 10.8483H13.7098H18.7429L18.942 10.7245C19.0515 10.6565 19.2041 10.5056 19.281 10.3893C19.3976 10.2132 19.4209 10.12 19.4209 9.83125C19.4209 9.54252 19.3976 9.44931 19.281 9.27318C19.2041 9.15693 19.0515 9.00604 18.942 8.93798L18.7429 8.81421L13.7881 8.80534C10.754 8.79992 8.76677 8.81588 8.66173 8.84649ZM8.66173 13.019C8.41498 13.0909 8.09438 13.4326 8.02224 13.7005C7.89738 14.1642 8.0829 14.6516 8.47772 14.897L8.6768 15.0208H13.7098H18.7429L18.942 14.897C19.0515 14.8289 19.2041 14.678 19.281 14.5618C19.3976 14.3857 19.4209 14.2925 19.4209 14.0037C19.4209 13.715 19.3976 13.6218 19.281 13.4457C19.2041 13.3294 19.0515 13.1785 18.942 13.1104L18.7429 12.9867L13.7881 12.9778C10.754 12.9724 8.76677 12.9884 8.66173 13.019ZM8.66173 17.1914C8.41498 17.2634 8.09438 17.605 8.02224 17.873C7.89738 18.3367 8.0829 18.824 8.47772 19.0695L8.6768 19.1932H13.7098H18.7429L18.942 19.0695C19.0515 19.0014 19.2041 18.8505 19.281 18.7343C19.3976 18.5581 19.4209 18.4649 19.4209 18.1762C19.4209 17.8875 19.3976 17.7943 19.281 17.6181C19.2041 17.5019 19.0515 17.351 18.942 17.2829L18.7429 17.1592L13.7881 17.1503C10.754 17.1449 8.76677 17.1608 8.66173 17.1914Z" fill="#B111BB"/>
</svg>
