<?xml version="1.0" encoding="utf-8"?>
<!-- Generator: Adobe Illustrator 26.0.3, SVG Export Plug-In . SVG Version: 6.00 Build 0)  -->
<svg version="1.1" id="Layer_1" xmlns="http://www.w3.org/2000/svg" xmlns:xlink="http://www.w3.org/1999/xlink" x="0px" y="0px"
	 viewBox="0 0 96 96" style="enable-background:new 0 0 96 96;" xml:space="preserve">
<style type="text/css">
	.st0{fill:#4F46E5;}
</style>
<path class="st0" d="M86.75,22.66L50.57,1.77c-1.59-0.92-3.55-0.92-5.14,0l-3,1.73c-0.61,0.35-0.98,1-0.98,1.7v7.34
	c0,1.51,1.63,2.45,2.94,1.7l2.63-1.52c0.61-0.35,1.35-0.35,1.96,0l29.08,16.79c0.61,0.35,0.98,1,0.98,1.7v33.58
	c0,0.7-0.37,1.35-0.98,1.7l-8.23,4.75v-38.5l-5.78-3.07l-0.46-0.24c-1.81-0.97-4.09,0.22-4.2,2.28c0,0.06-0.01,0.12-0.01,0.18v10.29
	H36.66V18.02v-1.54V11.5c0-2.07-2.24-3.36-4.03-2.33L9.25,22.66c-1.59,0.92-2.57,2.61-2.57,4.45v41.78c0,1.84,0.98,3.53,2.57,4.45
	l36.18,20.89c0.79,0.46,1.68,0.69,2.57,0.69s1.77-0.23,2.57-0.69l3.47-2c0.37-0.21,0.59-0.6,0.59-1.03v-9.12
	c0-0.91-0.99-1.49-1.78-1.03l-4.26,2.46c-0.37,0.21-0.82,0.21-1.19,0L17.55,66.27c-0.37-0.21-0.59-0.6-0.59-1.03V30.76
	c0-0.42,0.23-0.82,0.59-1.03l8.66-5v36.35v1.48l0.86,0.5l5.14,2.91l0.18,0.11c1.78,1.1,4.15-0.06,4.27-2.14
	c0-0.06,0.01-0.12,0.01-0.18V52.62h22.73v26.9c0,0.17,0.02,0.33,0.04,0.49v5.71c0,1.51,1.63,2.45,2.94,1.7l24.38-14.08
	c1.59-0.92,2.57-2.61,2.57-4.45V27.11C89.32,25.28,88.34,23.58,86.75,22.66z"/>
</svg>
