<svg width="1264" height="418" viewBox="0 0 1264 418" fill="none" xmlns="http://www.w3.org/2000/svg">
<path opacity="0.15" d="M1112.04 112.93L1130.5 70.8993C1131.08 69.5662 1131.3 68.1051 1131.13 66.6633C1130.95 65.2215 1130.4 63.8499 1129.52 62.6865L1101.75 25.9705C1100.87 24.8063 1099.7 23.8903 1098.34 23.3145C1096.99 22.7387 1095.51 22.5234 1094.04 22.6902L1047.83 27.9995C1046.36 28.1666 1044.97 28.71 1043.79 29.575C1042.6 30.44 1041.67 31.5962 1041.09 32.9272L1022.63 74.9574C1022.05 76.2905 1021.83 77.7516 1022 79.1934C1022.17 80.6352 1022.73 82.0068 1023.61 83.1702L1051.38 119.886C1052.26 121.051 1053.43 121.968 1054.79 122.544C1056.14 123.12 1057.63 123.335 1059.09 123.166L1105.31 117.881C1106.78 117.71 1108.17 117.163 1109.35 116.293C1110.53 115.424 1111.46 114.264 1112.04 112.93Z" fill="#0C1A24"/>
<path opacity="0.15" d="M1243.99 161.601L1262.45 119.57C1263.03 118.237 1263.25 116.776 1263.08 115.334C1262.91 113.893 1262.35 112.521 1261.47 111.358L1233.71 74.6416C1232.83 73.4774 1231.65 72.5613 1230.3 71.9856C1228.94 71.4098 1227.46 71.1945 1225.99 71.3613L1179.78 76.6706C1178.32 76.8377 1176.92 77.381 1175.74 78.2461C1174.56 79.1111 1173.63 80.2672 1173.04 81.5982L1154.58 123.628C1154 124.962 1153.78 126.423 1153.95 127.864C1154.13 129.306 1154.68 130.678 1155.57 131.841L1183.33 168.557C1184.21 169.723 1185.39 170.639 1186.74 171.215C1188.1 171.791 1189.58 172.006 1191.05 171.838L1237.26 166.552C1238.73 166.381 1240.12 165.834 1241.3 164.964C1242.49 164.095 1243.41 162.935 1243.99 161.601Z" fill="#0C1A24"/>
<path opacity="0.15" d="M1209.81 394.461L1226.81 355.576C1227.34 354.343 1227.54 352.991 1227.38 351.657C1227.23 350.323 1226.71 349.054 1225.9 347.978L1200.34 314.009C1199.53 312.932 1198.45 312.085 1197.2 311.552C1195.95 311.019 1194.59 310.82 1193.24 310.974L1150.69 315.886C1149.34 316.041 1148.06 316.544 1146.97 317.344C1145.88 318.144 1145.02 319.214 1144.48 320.445L1127.49 359.33C1126.95 360.564 1126.75 361.916 1126.91 363.249C1127.07 364.583 1127.58 365.852 1128.39 366.929L1153.96 400.897C1154.77 401.975 1155.85 402.824 1157.1 403.356C1158.35 403.889 1159.71 404.088 1161.06 403.932L1203.62 399.042C1204.96 398.884 1206.25 398.378 1207.34 397.573C1208.42 396.769 1209.28 395.696 1209.81 394.461Z" fill="#0C1A24"/>
<path opacity="0.15" d="M168.252 111.087L185.245 72.2024C185.783 70.969 185.983 69.6173 185.824 68.2834C185.666 66.9494 185.154 65.6804 184.341 64.6042L158.78 30.6356C157.97 29.5585 156.887 28.711 155.641 28.1783C154.394 27.6456 153.028 27.4464 151.679 27.6007L109.129 32.5128C107.78 32.6673 106.497 33.17 105.408 33.9703C104.318 34.7706 103.461 35.8403 102.923 37.0717L85.9294 75.9568C85.3913 77.1901 85.1915 78.5419 85.3503 79.8758C85.5092 81.2097 86.0209 82.4787 86.8341 83.555L112.399 117.524C113.208 118.602 114.291 119.45 115.538 119.983C116.784 120.516 118.151 120.714 119.501 120.558L162.055 115.669C163.404 115.511 164.687 115.004 165.775 114.2C166.863 113.395 167.717 112.322 168.252 111.087Z" fill="#0C1A24"/>
<path opacity="0.15" d="M85.6782 408.261L103.038 368.49C103.588 367.229 103.792 365.846 103.63 364.482C103.468 363.118 102.945 361.82 102.114 360.719L76.0023 325.977C75.1747 324.875 74.0686 324.008 72.7952 323.464C71.5218 322.919 70.1259 322.715 68.7477 322.873L25.2799 327.897C23.9024 328.055 22.5912 328.569 21.4783 329.388C20.3654 330.206 19.49 331.3 18.9402 332.56L1.57991 372.33C1.03015 373.591 0.826082 374.974 0.988325 376.338C1.15057 377.703 1.67338 379.001 2.50407 380.101L28.6207 414.843C29.4474 415.946 30.5533 416.814 31.827 417.359C33.1007 417.903 34.4971 418.107 35.8754 417.947L79.3477 412.946C80.7261 412.785 82.037 412.266 83.1484 411.444C84.2597 410.621 85.1324 409.523 85.6782 408.261Z" fill="#0C1A24"/>
<path opacity="0.15" d="M225.202 386.629L242.562 346.859C243.112 345.597 243.316 344.215 243.154 342.85C242.992 341.486 242.469 340.188 241.638 339.087L215.526 304.345C214.698 303.244 213.592 302.377 212.319 301.832C211.045 301.287 209.65 301.084 208.271 301.241L164.804 306.265C163.426 306.423 162.115 306.937 161.002 307.756C159.889 308.575 159.014 309.669 158.464 310.928L141.104 350.698C140.554 351.96 140.35 353.342 140.512 354.707C140.674 356.071 141.197 357.369 142.028 358.47L168.144 393.212C168.971 394.314 170.077 395.182 171.351 395.727C172.624 396.272 174.021 396.475 175.399 396.316L218.871 391.315C220.25 391.153 221.561 390.635 222.672 389.812C223.783 388.989 224.656 387.892 225.202 386.629Z" fill="#0C1A24"/>
<path opacity="0.7" d="M178.313 279.558V272.649C178.313 260.682 188.029 250.989 199.995 251.017L1081.38 253.074C1093.35 253.102 1103.06 243.409 1103.06 231.443V101.097" stroke="#4DA0FD" stroke-opacity="0.63" stroke-width="1.62237" stroke-dasharray="3.24 3.24"/>
<path opacity="0.8" d="M169.661 98.9342V121.985C169.661 133.932 179.345 143.617 191.292 143.617H1109.55C1121.5 143.617 1131.18 153.301 1131.18 165.248V362.839" stroke="#4DA0FD" stroke-opacity="0.63" stroke-width="1.62237" stroke-dasharray="3.24 3.24"/>
<path opacity="0.8" d="M189.129 85.9553H230.917C242.864 85.9553 252.549 95.64 252.549 107.587V196.276C252.549 208.223 262.234 217.908 274.18 217.908H1149.57C1161.52 217.908 1171.2 208.223 1171.2 196.276V147.605" stroke="#4DA0FD" stroke-opacity="0.63" stroke-width="1.62237" stroke-dasharray="3.24 3.24"/>
<path opacity="0.8" d="M1068.99 84.8737H1033.23C1021.28 84.8737 1011.6 94.5585 1011.6 106.505V171.874C1011.6 183.82 1001.91 193.505 989.967 193.505H116.663C104.716 193.505 95.0315 203.19 95.0315 215.137V370.411" stroke="#4DA0FD" stroke-opacity="0.63" stroke-width="1.62237" stroke-dasharray="3.24 3.24"/>
<path opacity="0.8" d="M1125.78 374.737H1021.36C1009.41 374.737 999.729 365.052 999.729 353.105L999.729 309.842C999.729 297.895 990.045 288.211 978.098 288.211H249.698C237.751 288.211 228.066 297.895 228.066 309.842V345.534C228.066 357.481 218.382 367.166 206.435 367.166H199.404" stroke="#4DA0FD" stroke-width="1.62237" stroke-dasharray="3.24 3.24"/>
<circle cx="254.873" cy="287.978" r="16.2237" transform="rotate(-23.8585 254.873 287.978)" fill="#2E2B31"/>
<path fill-rule="evenodd" clip-rule="evenodd" d="M259.322 280.473L248.946 280.473C248.552 280.473 248.233 280.792 248.233 281.185C248.233 281.579 248.552 281.898 248.946 281.898L259.322 281.898C259.716 281.898 260.035 281.579 260.035 281.185C260.035 280.792 259.716 280.473 259.322 280.473ZM248.937 281.618C248.702 281.613 248.514 281.421 248.514 281.185C248.514 280.947 248.707 280.753 248.946 280.753L259.322 280.753C259.325 280.753 259.328 280.753 259.331 280.753C259.328 280.753 259.325 280.753 259.323 280.753L248.947 280.753C248.708 280.753 248.514 280.947 248.514 281.185C248.514 281.421 248.703 281.612 248.937 281.618Z" fill="#67636A" fill-opacity="0.64"/>
<path fill-rule="evenodd" clip-rule="evenodd" d="M261.049 283.932L251.538 283.932C251.144 283.932 250.825 284.251 250.825 284.644C250.825 285.038 251.144 285.357 251.538 285.357L261.049 285.357C261.443 285.357 261.762 285.038 261.762 284.644C261.762 284.251 261.443 283.932 261.049 283.932ZM251.5 285.075C251.279 285.055 251.106 284.87 251.106 284.644C251.106 284.405 251.299 284.212 251.538 284.212L261.049 284.212C261.063 284.212 261.076 284.212 261.088 284.214C261.076 284.212 261.063 284.212 261.05 284.212L251.539 284.212C251.3 284.212 251.106 284.405 251.106 284.644C251.106 284.87 251.279 285.055 251.5 285.075Z" fill="#67636A" fill-opacity="0.64"/>
<path fill-rule="evenodd" clip-rule="evenodd" d="M259.322 286.525L251.54 286.525C251.147 286.525 250.828 286.844 250.828 287.238C250.828 287.632 251.147 287.951 251.54 287.951L259.322 287.951C259.716 287.951 260.035 287.632 260.035 287.238C260.035 286.844 259.716 286.525 259.322 286.525ZM251.525 287.67C251.293 287.662 251.108 287.472 251.108 287.238C251.108 286.999 251.301 286.806 251.54 286.806L259.322 286.806C259.327 286.806 259.332 286.806 259.336 286.806C259.332 286.806 259.327 286.806 259.323 286.806L251.541 286.806C251.302 286.806 251.108 286.999 251.108 287.238C251.108 287.471 251.293 287.662 251.525 287.67Z" fill="url(#paint0_linear_1289_320)"/>
<path fill-rule="evenodd" clip-rule="evenodd" d="M261.049 289.12H251.538C251.144 289.12 250.825 289.439 250.825 289.833C250.825 290.226 251.144 290.545 251.538 290.545L261.049 290.545C261.443 290.545 261.762 290.226 261.762 289.833C261.762 289.439 261.443 289.12 261.049 289.12ZM251.529 290.265C251.294 290.26 251.106 290.068 251.106 289.833C251.106 289.594 251.299 289.4 251.538 289.4L261.049 289.4C261.052 289.4 261.055 289.4 261.058 289.4C261.056 289.4 261.053 289.4 261.05 289.4L251.539 289.4C251.3 289.4 251.106 289.594 251.106 289.833C251.106 290.068 251.295 290.26 251.529 290.265Z" fill="url(#paint1_linear_1289_320)"/>
<path fill-rule="evenodd" clip-rule="evenodd" d="M255.863 291.714L251.54 291.714C251.147 291.714 250.828 292.033 250.828 292.426C250.828 292.82 251.147 293.139 251.54 293.139L255.863 293.139C256.257 293.139 256.576 292.82 256.576 292.426C256.576 292.033 256.257 291.714 255.863 291.714ZM251.531 292.858C251.296 292.854 251.108 292.662 251.108 292.426C251.108 292.187 251.301 291.994 251.54 291.994L255.863 291.994C255.866 291.994 255.869 291.994 255.872 291.994C255.87 291.994 255.867 291.994 255.864 291.994L251.541 291.994C251.302 291.994 251.108 292.187 251.108 292.426C251.108 292.662 251.297 292.853 251.531 292.858Z" fill="url(#paint2_linear_1289_320)"/>
<path fill-rule="evenodd" clip-rule="evenodd" d="M257.593 294.308L248.946 294.308C248.552 294.308 248.233 294.627 248.233 295.02C248.233 295.414 248.552 295.733 248.946 295.733L257.593 295.733C257.986 295.733 258.305 295.414 258.305 295.02C258.305 294.627 257.986 294.308 257.593 294.308ZM248.914 295.452C248.69 295.435 248.514 295.249 248.514 295.02C248.514 294.782 248.707 294.588 248.946 294.588L257.593 294.588C257.603 294.588 257.613 294.589 257.624 294.589C257.614 294.589 257.604 294.588 257.594 294.588L248.947 294.588C248.708 294.588 248.514 294.782 248.514 295.021C248.514 295.248 248.691 295.435 248.914 295.452Z" fill="url(#paint3_linear_1289_320)"/>
<circle cx="218.316" cy="141.07" r="16.2237" transform="rotate(25.1915 218.316 141.07)" fill="#2E2B31"/>
<circle cx="1067.37" cy="252.518" r="16.2237" fill="#2E2B31"/>
<path d="M1060.54 250.903H1064.2V254.557H1060.54V250.903Z" fill="#FF5A83" fill-opacity="0.42"/>
<path d="M1065.11 250.903H1068.76V254.557H1065.11V250.903Z" fill="#FF5A83" fill-opacity="0.42"/>
<path d="M1069.68 250.903H1073.33V254.557H1069.68V250.903Z" fill="#FF5A83" fill-opacity="0.42"/>
<path d="M1072.67 248.643L1075.72 252.309C1075.93 252.553 1075.93 252.907 1075.72 253.15L1072.67 256.816C1072.27 257.288 1071.51 257.01 1071.51 256.395L1071.51 249.064C1071.51 248.45 1072.27 248.171 1072.67 248.643Z" fill="url(#paint4_linear_1289_320)"/>
<path d="M1061.21 256.816L1058.15 253.151C1057.95 252.907 1057.95 252.553 1058.15 252.309L1061.21 248.644C1061.6 248.171 1062.37 248.45 1062.37 249.064V256.395C1062.37 257.01 1061.6 257.288 1061.21 256.816Z" fill="url(#paint5_linear_1289_320)"/>
<path fill-rule="evenodd" clip-rule="evenodd" d="M216.636 138.873L216.374 139.135C215.985 139.524 215.985 140.154 216.374 140.543L224.684 148.853C225.073 149.242 225.703 149.242 226.092 148.853L226.354 148.591C226.743 148.202 226.743 147.572 226.354 147.183L218.044 138.873C217.655 138.484 217.025 138.484 216.636 138.873ZM216.843 140.074C216.714 139.944 216.714 139.734 216.843 139.604L217.106 139.342C217.235 139.212 217.445 139.212 217.575 139.342L219.535 141.302L218.803 142.033L225.165 148.395C225.161 148.391 225.157 148.388 225.154 148.384L216.843 140.074ZM225.609 148.397C225.614 148.393 225.618 148.389 225.623 148.384L225.885 148.122C225.89 148.117 225.894 148.113 225.898 148.108L225.609 148.397Z" fill="url(#paint6_linear_1289_320)"/>
<path fill-rule="evenodd" clip-rule="evenodd" d="M211.444 138.548C211.315 138.419 211.105 138.419 210.975 138.548L210.713 138.811C210.583 138.94 210.583 139.15 210.713 139.28L210.975 139.542C211.104 139.672 211.104 139.882 210.975 140.011L210.713 140.273C210.583 140.403 210.583 140.613 210.713 140.743L210.975 141.005C211.105 141.135 211.315 141.135 211.444 141.005L211.707 140.743C211.836 140.613 212.046 140.613 212.176 140.743L212.438 141.005C212.568 141.135 212.778 141.135 212.908 141.005L213.17 140.743C213.3 140.613 213.3 140.403 213.17 140.274L212.907 140.011C212.778 139.882 212.778 139.672 212.907 139.542L213.17 139.279C213.3 139.15 213.3 138.94 213.17 138.81L212.908 138.548C212.778 138.418 212.568 138.418 212.438 138.548L212.176 138.81C212.046 138.94 211.836 138.94 211.707 138.81L211.444 138.548Z" fill="#FEB240" fill-opacity="0.31"/>
<path fill-rule="evenodd" clip-rule="evenodd" d="M212.629 132.062C212.5 131.932 212.29 131.932 212.16 132.062L211.632 132.59C211.502 132.72 211.502 132.93 211.632 133.06L212.16 133.588C212.29 133.718 212.29 133.928 212.16 134.058L211.632 134.586C211.502 134.716 211.502 134.926 211.632 135.056L212.16 135.584C212.29 135.714 212.5 135.714 212.629 135.584L213.158 135.056C213.288 134.926 213.498 134.926 213.627 135.056L214.156 135.584C214.286 135.714 214.496 135.714 214.625 135.584L215.154 135.055C215.284 134.926 215.284 134.716 215.154 134.586L214.625 134.058C214.496 133.928 214.496 133.718 214.625 133.588L215.154 133.06C215.284 132.93 215.284 132.72 215.154 132.591L214.625 132.062C214.496 131.932 214.286 131.932 214.156 132.062L213.627 132.59C213.498 132.72 213.288 132.72 213.158 132.59L212.629 132.062Z" fill="#FEB240" fill-opacity="0.31"/>
<path fill-rule="evenodd" clip-rule="evenodd" d="M218.762 134.158C218.632 134.029 218.422 134.029 218.293 134.158L218.03 134.421C217.901 134.55 217.901 134.76 218.03 134.89L218.292 135.152C218.422 135.282 218.422 135.492 218.292 135.621L218.03 135.884C217.901 136.013 217.901 136.223 218.03 136.353L218.293 136.615C218.422 136.745 218.632 136.745 218.762 136.615L219.024 136.353C219.154 136.224 219.364 136.224 219.493 136.353L219.756 136.616C219.885 136.745 220.095 136.745 220.225 136.616L220.488 136.353C220.617 136.224 220.617 136.014 220.488 135.884L220.225 135.621C220.095 135.492 220.095 135.282 220.225 135.152L220.488 134.89C220.617 134.76 220.617 134.55 220.488 134.42L220.225 134.158C220.095 134.028 219.885 134.028 219.756 134.158L219.493 134.421C219.364 134.55 219.154 134.55 219.024 134.421L218.762 134.158Z" fill="#FEB240" fill-opacity="0.31"/>
<g opacity="0.2" filter="url(#filter0_f_1289_320)">
<circle cx="251.861" cy="161.666" r="12.9789" fill="#4DA0FD"/>
</g>
<circle cx="251.86" cy="161.666" r="3.24474" fill="#83CBFF"/>
<g opacity="0.2" filter="url(#filter1_f_1289_320)">
<circle cx="1041.41" cy="374.737" r="12.9789" fill="#4DA0FD"/>
</g>
<circle cx="1041.41" cy="374.737" r="3.24474" fill="#83CBFF"/>
<g opacity="0.8" filter="url(#filter2_d_1289_320)">
<path d="M1169.03 351.368L1168.97 343.255L1162.17 342.994L1161.69 351.368H1157.19V358.295L1169.71 366.996L1172.62 351.368H1169.03Z" fill="url(#paint7_linear_1289_320)"/>
<path opacity="0.6" d="M1171.8 362.637L1165.02 362.189C1167.13 360.4 1168.8 356.524 1168.11 355.84C1166.39 354.133 1166.22 350.027 1166.92 347.022L1168.85 346.038L1171.8 362.637Z" fill="#BFB4C2"/>
<path d="M1150.85 336.458C1153.48 336.458 1155.62 332.286 1155.62 327.14C1155.62 321.993 1153.48 317.821 1150.85 317.821C1148.22 317.821 1146.08 321.993 1146.08 327.14C1146.08 332.286 1148.22 336.458 1150.85 336.458Z" fill="#583F9C"/>
<path d="M1177.84 381.881H1145.68L1147.41 363.388C1147.41 358.524 1147.41 353.3 1154.85 351.375H1157.38L1159.84 358.954C1161.51 363.603 1169.06 362.986 1170.48 358.954L1173.37 351.325C1183.91 351.551 1186.04 357.06 1186.04 367.395L1186.31 373.391C1186.45 382.854 1182.51 381.881 1177.84 381.881Z" fill="url(#paint8_linear_1289_320)"/>
<path d="M1164.41 348.13C1162.63 348.131 1160.86 347.779 1159.2 347.095C1157.55 346.41 1156.05 345.405 1154.79 344.138C1153.52 342.872 1152.52 341.368 1151.83 339.712C1151.15 338.057 1150.8 336.282 1150.8 334.49V315.892C1150.8 312.538 1153.42 308.993 1156.78 308.993L1172.95 315.649C1176.29 315.649 1178.02 317.744 1178.02 321.094L1177.86 332.974C1170.79 347.156 1167.73 347.499 1164.41 348.13Z" fill="url(#paint9_radial_1289_320)"/>
<path d="M1154.11 335.267C1154.78 335.267 1155.33 334.717 1155.33 334.039C1155.33 333.361 1154.78 332.812 1154.11 332.812C1153.43 332.812 1152.88 333.361 1152.88 334.039C1152.88 334.717 1153.43 335.267 1154.11 335.267Z" fill="#5B5159"/>
<path d="M1166.45 334.984C1167.16 334.984 1167.73 334.409 1167.73 333.7C1167.73 332.991 1167.16 332.416 1166.45 332.416C1165.74 332.416 1165.17 332.991 1165.17 333.7C1165.17 334.409 1165.74 334.984 1166.45 334.984Z" fill="#5B5159"/>
<path d="M1161.25 343.065C1159.97 343.019 1158.73 342.579 1157.71 341.806C1157.65 341.766 1157.6 341.716 1157.57 341.657C1157.53 341.599 1157.5 341.533 1157.49 341.465C1157.48 341.396 1157.48 341.326 1157.49 341.258C1157.51 341.19 1157.54 341.126 1157.58 341.069C1157.62 341.011 1157.67 340.962 1157.72 340.925C1157.78 340.887 1157.85 340.861 1157.92 340.849C1157.98 340.836 1158.05 340.838 1158.12 340.852C1158.19 340.867 1158.25 340.895 1158.31 340.935C1160.37 342.363 1162.15 342.37 1163.92 340.956C1163.98 340.912 1164.04 340.88 1164.1 340.861C1164.17 340.842 1164.24 340.836 1164.31 340.844C1164.38 340.852 1164.45 340.873 1164.51 340.907C1164.57 340.941 1164.62 340.986 1164.66 341.04C1164.71 341.095 1164.74 341.157 1164.76 341.224C1164.78 341.291 1164.78 341.361 1164.78 341.43C1164.77 341.499 1164.75 341.566 1164.71 341.627C1164.68 341.688 1164.63 341.741 1164.58 341.785C1163.65 342.586 1162.47 343.039 1161.25 343.065Z" fill="#5B5159"/>
<path opacity="0.71" d="M1178.53 374.333C1178.4 374.332 1178.27 374.281 1178.17 374.19C1178.08 374.098 1178.02 373.973 1178.01 373.839L1177.49 366.474C1177.48 366.405 1177.49 366.335 1177.51 366.269C1177.54 366.203 1177.57 366.142 1177.62 366.09C1177.66 366.037 1177.72 365.994 1177.78 365.964C1177.84 365.933 1177.91 365.915 1177.98 365.91C1178.12 365.9 1178.26 365.947 1178.36 366.039C1178.47 366.13 1178.53 366.261 1178.54 366.4L1179.06 373.765C1179.06 373.834 1179.06 373.904 1179.03 373.97C1179.01 374.036 1178.98 374.097 1178.93 374.15C1178.89 374.202 1178.83 374.245 1178.77 374.276C1178.71 374.307 1178.64 374.325 1178.57 374.329L1178.53 374.333Z" fill="#1C64A5"/>
<path d="M1171.21 314.686C1175.87 314.686 1179.65 310.968 1179.65 306.383C1179.65 301.797 1175.87 298.08 1171.21 298.08C1166.55 298.08 1162.78 301.797 1162.78 306.383C1162.78 310.968 1166.55 314.686 1171.21 314.686Z" fill="#1D1D1B"/>
<path d="M1168.75 346.663C1168.46 347.509 1166.12 352.338 1170.63 357.833C1174.24 362.249 1183.55 358.313 1187.07 356.595C1187.18 356.543 1187.27 356.459 1187.34 356.355C1187.4 356.251 1187.43 356.13 1187.43 356.008C1187.42 355.886 1187.38 355.768 1187.31 355.669C1187.24 355.569 1187.14 355.493 1187.03 355.449C1184.77 354.574 1180.54 352.151 1179.83 346.091C1179.64 344.38 1179.31 342.687 1178.83 341.033L1177.16 335.39L1168.75 346.663Z" fill="#1D1D1B"/>
<path d="M1177.31 332.713C1177.31 332.713 1160.25 332.441 1156.04 322.837C1152.44 335.213 1146.6 333.259 1143.67 332.519C1143.56 332.494 1143.46 332.441 1143.38 332.366C1143.29 332.291 1143.23 332.195 1143.2 332.089C1143.16 331.983 1143.15 331.869 1143.18 331.759C1143.2 331.649 1143.25 331.546 1143.32 331.461C1147.1 327.002 1149.5 324.329 1149.7 317.243C1149.08 313.254 1151.87 310.471 1153.73 308.28C1156.75 304.725 1161.87 304.552 1166.38 305.769C1171.97 307.282 1179.08 311.155 1179.59 321.077L1177.31 332.713Z" fill="#1D1D1B"/>
<path d="M1175.67 321.722C1175.27 313.434 1169.54 309.825 1164.05 309.441C1158.88 309.088 1150.44 311.441 1149.93 318.322L1149.65 318.252C1150.15 311.398 1154.76 304.327 1164.87 304.496C1172.36 304.605 1181.26 310.46 1181.79 321.602L1175.67 321.722Z" fill="#B38EEF"/>
<path d="M1175.69 321.486C1174.49 314.312 1169.33 310.855 1164.49 310.517C1160.74 310.256 1155.2 310.362 1150.95 315.144L1151 314.887C1153.91 309.896 1160.54 309.18 1164.56 309.462C1169.84 309.832 1175.89 312.746 1176.72 320.862L1175.69 321.486Z" fill="#9C81D9"/>
<path d="M1178.82 337.876C1181.45 337.876 1183.59 333.704 1183.59 328.558C1183.59 323.411 1181.45 319.239 1178.82 319.239C1176.19 319.239 1174.05 323.411 1174.05 328.558C1174.05 333.704 1176.19 337.876 1178.82 337.876Z" fill="#603EA8"/>
<path d="M1180.45 335.069C1182.17 335.069 1183.57 332.094 1183.57 328.424C1183.57 324.754 1182.17 321.779 1180.45 321.779C1178.73 321.779 1177.34 324.754 1177.34 328.424C1177.34 332.094 1178.73 335.069 1180.45 335.069Z" fill="#9261D2"/>
<path d="M1179.07 327.306C1179.07 324.999 1179.59 322.967 1180.37 321.768H1180.33C1178.7 321.768 1177.38 324.756 1177.38 328.442C1177.38 332.127 1178.7 335.115 1180.33 335.115C1180.69 335.095 1181.03 334.985 1181.34 334.798C1181.64 334.61 1181.89 334.349 1182.07 334.039C1180.46 333.986 1179.07 330.96 1179.07 327.306Z" fill="#7B57B8"/>
<path opacity="0.71" d="M1181 382.001C1180.45 382.001 1179.87 381.965 1179.29 381.93C1178.71 381.895 1178.1 381.856 1177.49 381.853L1167.64 382.001V380.943L1177.49 380.794C1178.15 380.794 1178.76 380.837 1179.36 380.872C1181.21 380.985 1182.82 381.08 1183.8 380.107C1184.86 379.049 1185.29 376.696 1185.11 372.89L1184.84 368.009C1184.83 367.863 1184.85 367.717 1184.9 367.579C1184.95 367.442 1185.02 367.316 1185.12 367.208C1185.22 367.1 1185.34 367.014 1185.47 366.953C1185.6 366.893 1185.75 366.859 1185.89 366.855V366.855L1186.16 372.834C1186.36 377.066 1185.86 379.535 1184.54 380.858C1183.6 381.789 1182.36 382.001 1181 382.001Z" fill="#1C64A5"/>
<path opacity="0.6" d="M1164.92 347.823C1164.35 347.823 1163.51 347.978 1162.91 347.791L1162.85 347.759C1165.58 348.366 1173.76 341.481 1174.42 332.483C1174.87 333.859 1175.4 335.39 1176.14 336.381C1174.26 338.734 1169.64 348.574 1164.92 347.823Z" fill="#BFB4C2"/>
<path d="M1159.31 382.075H1165.96V374.21L1159.95 374.46L1159.31 382.075Z" fill="url(#paint10_linear_1289_320)"/>
<path opacity="0.71" d="M1166.03 375.028C1165.89 375.028 1165.75 374.972 1165.65 374.873C1165.55 374.774 1165.5 374.639 1165.5 374.499C1165.5 374.358 1165.55 374.224 1165.65 374.125C1165.75 374.026 1165.89 373.97 1166.03 373.97L1181.35 373.949C1181.49 373.949 1181.63 374.004 1181.73 374.104C1181.82 374.203 1181.88 374.337 1181.88 374.478C1181.88 374.618 1181.82 374.753 1181.73 374.852C1181.63 374.951 1181.49 375.007 1181.35 375.007L1166.02 375.028H1166.03Z" fill="#1C64A5"/>
<path opacity="0.6" d="M1165.93 381.031H1160.04V382.089H1165.93V381.031Z" fill="#BCBCBC"/>
<path opacity="0.71" d="M1176.52 360.806C1174.18 360.806 1172.81 360.531 1170.94 359.219L1171.29 358.355C1173.12 359.977 1176.01 360.909 1184.28 357.836L1184.49 358.701C1181.3 360.168 1179 360.806 1176.52 360.806Z" fill="#1C64A5"/>
<path d="M1157.14 379.602H1177.42C1177.83 379.602 1178.22 379.764 1178.51 380.052C1178.8 380.341 1178.96 380.732 1178.96 381.14C1178.96 381.548 1178.8 381.939 1178.51 382.227C1178.22 382.516 1177.83 382.678 1177.42 382.678H1157.14V379.605V379.602Z" fill="url(#paint11_linear_1289_320)"/>
<path d="M1122.53 358.892L1123.52 357.16C1123.86 356.57 1124.35 356.081 1124.94 355.741C1125.53 355.402 1126.19 355.224 1126.88 355.226L1153.53 355.33C1153.96 355.332 1154.39 355.473 1154.74 355.732C1155.09 355.991 1155.35 356.355 1155.48 356.772L1162.94 379.695C1163.29 382.307 1161.11 382.56 1159.46 382.643L1153.77 358.951C1153.64 358.557 1153.39 358.216 1153.05 357.981C1152.71 357.745 1152.3 357.627 1151.89 357.645L1122.53 358.892Z" fill="#41166C"/>
<path d="M1159.47 382.678H1131.46C1131.12 382.678 1130.79 382.572 1130.52 382.375C1130.24 382.178 1130.04 381.9 1129.93 381.58L1122.64 359.688C1122.56 359.447 1122.54 359.19 1122.58 358.939C1122.62 358.688 1122.71 358.449 1122.86 358.242C1123.01 358.036 1123.21 357.868 1123.43 357.752C1123.66 357.636 1123.91 357.575 1124.16 357.575H1152.18C1152.51 357.576 1152.84 357.682 1153.11 357.879C1153.39 358.076 1153.59 358.354 1153.7 358.673L1161 380.565C1161.08 380.807 1161.1 381.065 1161.06 381.317C1161.02 381.569 1160.93 381.808 1160.78 382.015C1160.63 382.222 1160.43 382.39 1160.2 382.505C1159.97 382.62 1159.72 382.68 1159.47 382.678V382.678Z" fill="url(#paint12_linear_1289_320)"/>
<path opacity="0.8" d="M1144.57 371.769L1143.92 368.408C1143.9 368.306 1143.86 368.211 1143.79 368.13C1143.72 368.05 1143.64 367.987 1143.54 367.948L1140.18 366.562C1140.08 366.52 1139.97 366.505 1139.86 366.519C1139.75 366.533 1139.65 366.575 1139.56 366.641L1136.94 368.627C1136.84 368.697 1136.77 368.792 1136.73 368.901C1136.69 369.01 1136.68 369.129 1136.7 369.243L1137.35 372.6C1137.37 372.702 1137.41 372.798 1137.48 372.878C1137.54 372.958 1137.63 373.021 1137.72 373.061L1141.09 374.447C1141.19 374.487 1141.3 374.501 1141.41 374.487C1141.51 374.473 1141.61 374.432 1141.7 374.367L1144.33 372.378C1144.42 372.309 1144.49 372.215 1144.54 372.107C1144.58 372 1144.59 371.882 1144.57 371.769V371.769Z" fill="#783CAE"/>
</g>
<g opacity="0.8" filter="url(#filter3_d_1289_320)">
<path d="M135.291 97.98H171.323L169.388 77.2335C169.388 71.775 169.388 65.9136 161.042 63.7544H158.232L140.309 63.6979C128.503 63.9517 126.122 70.1434 126.122 81.7292L125.829 88.4648C125.629 99.0716 130.044 97.98 135.291 97.98Z" fill="url(#paint13_linear_1289_320)"/>
<path d="M151.131 56.0116C159.48 56.4145 166.585 49.6105 166.995 40.8406L167.649 27.9092C168.36 18.946 163.33 14.4664 158.015 14.0555C158.015 14.0555 130.112 7.20716 137.173 32.7273L137.033 37.6541C144.094 54.5413 147.482 55.1012 151.131 56.0116Z" fill="url(#paint14_radial_1289_320)"/>
<path d="M162.263 38.1411C162.26 37.5003 162.797 36.9784 163.462 36.9754C164.127 36.9724 164.669 37.4893 164.672 38.1301C164.674 38.7708 164.138 39.2927 163.473 39.2958C162.807 39.2988 162.266 38.7818 162.263 38.1411Z" fill="#5B5159"/>
<path d="M148.576 38.4809C148.573 37.809 149.13 37.2618 149.819 37.2586C150.509 37.2555 151.07 37.7976 151.073 38.4695C151.076 39.1414 150.52 39.6886 149.83 39.6918C149.141 39.6949 148.579 39.1528 148.576 38.4809Z" fill="#5B5159"/>
<path d="M140.191 42.2341C138.321 42.5845 135.025 41.9884 134.543 37.8471C134.254 35.3334 135.23 33.0573 137.104 32.7068C137.568 32.6234 138.045 32.6608 138.489 32.8156" fill="#DCCFE1"/>
<path d="M134.512 89.5202C134.671 89.5192 134.824 89.4551 134.937 89.342C135.049 89.2289 135.113 89.0759 135.114 88.9159L135.138 75.3038C135.138 75.1443 135.075 74.9912 134.963 74.878C134.851 74.7648 134.699 74.7006 134.54 74.6996V74.6996C134.381 74.7006 134.228 74.7646 134.115 74.8777C134.003 74.9908 133.939 75.1439 133.938 75.3038L133.914 88.9159C133.913 88.9951 133.928 89.0736 133.958 89.1469C133.988 89.2202 134.032 89.2868 134.088 89.343C134.143 89.3991 134.209 89.4437 134.282 89.4741C134.355 89.5045 134.433 89.5202 134.512 89.5202Z" fill="#1C64A5"/>
<path d="M148.51 90.3018C148.67 90.3018 148.823 90.238 148.936 90.1247C149.049 90.0114 149.112 89.8578 149.112 89.6975C149.112 89.5372 149.049 89.3835 148.936 89.2702C148.823 89.1568 148.67 89.0932 148.51 89.0932L131.333 89.069C131.174 89.069 131.021 89.1321 130.909 89.2446C130.796 89.357 130.732 89.5097 130.731 89.6693C130.731 89.8299 130.794 89.984 130.907 90.098C131.02 90.2119 131.173 90.2765 131.333 90.2776L148.506 90.3018H148.51Z" fill="#1C64A5"/>
<path d="M135.323 25.1782C134.974 15.4656 141.915 7.33214 150.826 7.00986C159.738 6.68759 167.245 14.3013 167.59 24.0139C167.59 24.1589 167.59 24.304 167.59 24.449L135.339 25.6132C135.339 25.4682 135.327 25.3232 135.323 25.1782Z" fill="url(#paint15_linear_1289_320)"/>
<path d="M135.877 23.59L167.32 22.455C168.625 22.4079 169.721 23.4314 169.768 24.741L169.933 29.3344C169.98 30.644 168.96 31.7439 167.655 31.791L136.212 32.926C134.907 32.9731 133.811 31.9496 133.764 30.64L133.599 26.0466C133.552 24.737 134.572 23.6371 135.877 23.59Z" fill="url(#paint16_linear_1289_320)"/>
<path d="M134.798 25.0652C134.775 25.1982 134.766 25.3332 134.77 25.4681L134.91 29.3514C134.93 29.8968 135.165 30.412 135.563 30.7836C135.961 31.1553 136.49 31.353 137.034 31.3334L164.33 31.5711C164.636 31.5711 164.652 31.8451 163.66 31.8813L135.962 32.8321C135.418 32.8517 134.889 32.6538 134.491 32.2822C134.093 31.9105 133.858 31.3954 133.838 30.85L133.698 26.9626C133.685 26.5745 133.781 26.1905 133.975 25.8549C134.17 25.5192 134.455 25.2455 134.798 25.0652Z" fill="#853FC0"/>
<path d="M150.392 88.9923H154.406V70.0828H150.392V88.9923ZM153.202 87.7837H151.596V71.2913H153.202V87.7837Z" fill="#1C64A5"/>
<path d="M152.343 75.0825C151.957 75.0825 151.644 74.7686 151.644 74.3815C151.644 73.9944 151.957 73.6806 152.343 73.6806C152.729 73.6806 153.041 73.9944 153.041 74.3815C153.041 74.7686 152.729 75.0825 152.343 75.0825Z" fill="#1C64A5"/>
<path d="M152.408 79.1349C152.023 79.1349 151.71 78.8211 151.71 78.434C151.71 78.0469 152.023 77.733 152.408 77.733C152.794 77.733 153.107 78.0469 153.107 78.434C153.107 78.8211 152.794 79.1349 152.408 79.1349Z" fill="#1C64A5"/>
<path d="M152.408 83.526C152.023 83.526 151.71 83.2121 151.71 82.825C151.71 82.4379 152.023 82.1241 152.408 82.1241C152.794 82.1241 153.107 82.4379 153.107 82.825C153.107 83.2121 152.794 83.526 152.408 83.526Z" fill="#1C64A5"/>
<path d="M140.031 42.0652C142.56 51.2219 146.622 47.7856 147.369 47.3022C159.476 39.7126 162.141 47.5439 163.883 47.6285C165.626 47.7131 165.577 43.8176 166.625 41.9887C167.396 40.6311 167.336 41.6947 167.336 41.6947L168.271 58.7873C168.62 66.7596 162.25 70.5543 158.191 70.5302L150.918 70.9814C144.96 71.3359 141.315 68.8624 139.3 66.5138C137.953 64.9261 137.217 62.9069 137.225 60.8217L137.526 44.007L137.574 41.2918L140.031 42.0652Z" fill="#0F0D0E"/>
<path d="M156.092 50.537C156.766 50.5381 157.435 50.4124 158.063 50.1663C158.212 50.1081 158.332 49.9928 158.396 49.8459C158.46 49.6989 158.464 49.5324 158.406 49.3828C158.348 49.2333 158.233 49.113 158.087 49.0484C157.94 48.9838 157.774 48.9802 157.625 49.0384C157.063 49.2518 156.464 49.3471 155.864 49.3187C155.264 49.2903 154.676 49.1387 154.137 48.8732C154.065 48.8322 153.985 48.8065 153.903 48.7977C153.821 48.7888 153.738 48.797 153.659 48.8219C153.58 48.8467 153.507 48.8877 153.445 48.942C153.382 48.9964 153.331 49.0631 153.296 49.138C153.26 49.2128 153.24 49.2943 153.237 49.3772C153.234 49.4602 153.249 49.5429 153.279 49.6201C153.309 49.6973 153.355 49.7674 153.414 49.826C153.472 49.8847 153.542 49.9306 153.619 49.961C154.39 50.3365 155.235 50.5334 156.092 50.537V50.537Z" fill="#F3EBFF"/>
<path d="M145.475 76.1701H139.273V80.0898C139.273 80.7992 139.554 81.4796 140.054 81.9812C140.554 82.4828 141.232 82.7647 141.939 82.7647H142.822C143.529 82.7647 144.207 82.4828 144.706 81.9812C145.206 81.4796 145.487 80.7992 145.487 80.0898V76.1701H145.475Z" fill="#80AFEF"/>
<path d="M142.556 79.268C142.17 79.268 141.857 78.9542 141.857 78.5671C141.857 78.18 142.17 77.8661 142.556 77.8661C142.942 77.8661 143.254 78.18 143.254 78.5671C143.254 78.9542 142.942 79.268 142.556 79.268Z" fill="#1C64A5"/>
<path d="M148.24 89.5726H155.414V97.4683H148.24V89.5726Z" fill="#F3EBFF"/>
<path d="M131.855 98.0364C132.485 98.0364 133.139 97.9962 133.806 97.9559C134.472 97.9156 135.158 97.8753 135.853 97.8713L147.093 98.0364V96.8279L135.853 96.6628C135.114 96.6628 134.408 96.7111 133.729 96.7514C131.61 96.8803 129.779 96.9891 128.655 95.8732C127.451 94.6647 126.957 91.9776 127.162 87.6309L127.479 82.0597C127.489 81.893 127.465 81.726 127.41 81.5687C127.354 81.4114 127.267 81.2669 127.155 81.1437C127.043 81.0205 126.907 80.9211 126.756 80.8515C126.605 80.7819 126.441 80.7434 126.275 80.7383V80.7383L125.974 87.5867C125.745 92.4208 126.315 95.2407 127.82 96.7514C128.884 97.7988 130.297 98.0364 131.855 98.0364Z" fill="#1C64A5"/>
<path opacity="0.6" d="M148.26 97.541L153.868 97.5249L154.362 96.3808L148.26 96.3325V97.541Z" fill="#BCBCBC"/>
<path d="M160.054 41.2475H160.134L167.629 40.9695C168.196 40.9475 168.73 40.7012 169.116 40.2844C169.502 39.8677 169.708 39.3144 169.688 38.7458L169.596 36.2603C169.572 35.6925 169.326 35.157 168.911 34.7702C168.496 34.3833 167.946 34.1762 167.38 34.1936L159.886 34.4716C159.319 34.4936 158.785 34.7401 158.4 35.157C158.014 35.5739 157.81 36.1271 157.83 36.6953L157.919 39.1809C157.94 39.7353 158.175 40.2597 158.573 40.6448C158.971 41.0299 159.501 41.2458 160.054 41.2475V41.2475ZM160.09 40.0389C159.843 40.0466 159.603 39.9561 159.422 39.7871C159.241 39.6182 159.133 39.3845 159.123 39.1366L159.03 36.651C159.021 36.4026 159.111 36.1605 159.279 35.9782C159.363 35.8876 159.463 35.8146 159.575 35.7634C159.686 35.7122 159.807 35.6839 159.93 35.6801L167.424 35.4022C167.67 35.3986 167.908 35.4905 168.088 35.6586C168.269 35.8267 168.377 36.0581 168.392 36.3045L168.484 38.7901C168.493 39.0384 168.403 39.28 168.234 39.462C168.066 39.644 167.832 39.7515 167.585 39.761L160.09 40.0389Z" fill="#0F0D0E"/>
<path d="M145.636 41.6747H145.7L153.194 41.3968C153.761 41.3758 154.297 41.1297 154.683 40.7127C155.069 40.2957 155.274 39.7419 155.254 39.1731L155.161 36.6874C155.137 36.1197 154.891 35.5843 154.476 35.1974C154.062 34.8106 153.512 34.6034 152.946 34.6209L145.455 34.8948C144.888 34.9168 144.352 35.1638 143.966 35.5814C143.58 35.999 143.375 36.5533 143.396 37.1225L143.484 39.6081C143.506 40.1652 143.742 40.6921 144.144 41.0776C144.545 41.4631 145.08 41.6772 145.636 41.6747ZM145.668 40.4662C145.421 40.4738 145.18 40.3833 144.999 40.2144C144.818 40.0455 144.711 39.8117 144.7 39.5638L144.608 37.0742C144.6 36.8255 144.691 36.5839 144.86 36.402C145.029 36.2202 145.263 36.1128 145.511 36.1033L153.002 35.8294C153.248 35.8239 153.487 35.9151 153.668 36.0836C153.849 36.2521 153.957 36.4846 153.969 36.7318L154.061 39.2173C154.07 39.4656 153.98 39.7073 153.813 39.8901C153.729 39.9804 153.629 40.0531 153.517 40.1042C153.405 40.1554 153.285 40.184 153.162 40.1882L145.668 40.4662Z" fill="#0F0D0E"/>
<path d="M158.569 36.5175L158.582 37.726L154.416 37.7705L154.403 36.562L158.569 36.5175Z" fill="#0F0D0E"/>
<path d="M136.241 32.7134L143.875 35.9858L143.402 37.0972L135.768 33.8247L136.241 32.7134Z" fill="#0F0D0E"/>
<path d="M144.239 8.76205C143.159 10.0632 140.08 14.9174 139.522 17.1452C139.391 17.6627 139.381 18.2037 139.495 18.7255C139.608 19.2472 139.841 19.7354 140.174 20.1513C140.508 20.5671 140.934 20.8993 141.418 21.1215C141.901 21.3437 142.43 21.4498 142.962 21.4315L162.102 22.2372C162.154 22.3621 161.985 21.9753 162.102 22.2895C160.725 22.3741 158.967 22.4346 158.963 22.4386L135.407 23.2805C135.504 18.9136 138.94 10.9173 144.239 8.76205Z" fill="#853FC0"/>
<path d="M158.39 97.353H136.581C136.142 97.353 135.721 97.5273 135.41 97.8376C135.1 98.1478 134.925 98.5686 134.925 99.0073C134.925 99.446 135.1 99.8668 135.41 100.177C135.721 100.487 136.142 100.662 136.581 100.662H158.39V97.3568V97.353Z" fill="url(#paint17_linear_1289_320)"/>
<path d="M195.616 75.0799L194.553 73.217C194.189 72.5831 193.663 72.0568 193.029 71.6917C192.395 71.3265 191.676 71.1354 190.944 71.138L162.283 71.2498C161.813 71.2519 161.356 71.4032 160.978 71.6818C160.6 71.9604 160.321 72.3519 160.18 72.7997L152.153 97.4535C151.781 100.263 154.126 100.535 155.904 100.624L162.022 75.1432C162.159 74.7201 162.431 74.3537 162.797 74.1C163.163 73.8463 163.601 73.7193 164.046 73.7386L195.616 75.0799Z" fill="#41166C"/>
<path d="M155.891 100.662H186.014C186.377 100.662 186.731 100.547 187.025 100.335C187.319 100.124 187.54 99.8244 187.654 99.4805L195.495 75.9369C195.582 75.6775 195.606 75.4013 195.565 75.1309C195.524 74.8604 195.419 74.6036 195.259 74.3816C195.099 74.1596 194.889 73.9788 194.645 73.854C194.401 73.7293 194.132 73.6642 193.858 73.6642H163.731C163.369 73.6645 163.016 73.7787 162.722 73.9907C162.428 74.2026 162.209 74.5016 162.095 74.8452L154.243 98.3888C154.156 98.6491 154.132 98.9264 154.174 99.1977C154.215 99.469 154.321 99.7265 154.482 99.9487C154.643 100.171 154.855 100.352 155.1 100.476C155.345 100.6 155.616 100.663 155.891 100.662V100.662Z" fill="url(#paint18_linear_1289_320)"/>
<path opacity="0.8" d="M171.915 88.929L172.612 85.315C172.633 85.2053 172.68 85.1025 172.75 85.0159C172.821 84.9293 172.912 84.8618 173.015 84.8194L176.635 83.3291C176.743 83.2837 176.86 83.2676 176.976 83.2827C177.092 83.2977 177.202 83.3433 177.295 83.4148L180.121 85.5497C180.221 85.6251 180.298 85.7274 180.343 85.8447C180.388 85.9621 180.399 86.0897 180.374 86.2129L179.681 89.8232C179.659 89.9329 179.611 90.0355 179.54 90.122C179.469 90.2085 179.378 90.276 179.274 90.3187L175.654 91.8091C175.547 91.8527 175.43 91.8677 175.315 91.8527C175.2 91.8376 175.091 91.7931 174.998 91.7234L172.169 89.5848C172.069 89.5102 171.993 89.4092 171.948 89.2932C171.903 89.1773 171.892 89.0511 171.915 88.929V88.929Z" fill="#783CAE"/>
</g>
<g opacity="0.8" filter="url(#filter4_d_1289_320)">
<path d="M52.4275 358.661C46.3548 358.621 38.9339 363.652 39.2456 374.091C39.3023 376.008 39.4198 379.946 39.4198 379.946C40.3347 386.849 45.3102 391.169 51.0874 391.027L84.621 392.318L82.6332 370.993C82.6332 370.335 82.2283 373.973 82.1959 373.311C82.0785 367.732 80.1717 359.579 72.3946 358.925L52.4275 358.661Z" fill="url(#paint19_linear_1289_320)"/>
<path d="M57.5706 358.665L60.437 364.195C60.5637 364.373 60.7315 364.517 60.9262 364.615C61.1208 364.713 61.3363 364.762 61.554 364.757C61.7717 364.753 61.985 364.696 62.1755 364.59C62.366 364.484 62.528 364.333 62.6475 364.151L65.0765 358.937L65.0442 354.3L57.6759 351.458L57.5706 358.665Z" fill="#9F8293"/>
<path d="M61.0437 390.601H66.7115V391.819H61.0437V390.601Z" fill="#49322C"/>
<path d="M60.4173 392.517L61.061 393.816C61.563 394.222 65.4172 394.222 65.9192 393.816L67.8179 392.294L68.7247 388.03C68.3523 384.177 62.1298 384.376 60.3201 386.565L48.9277 386.881C48.6882 386.888 48.4498 386.846 48.227 386.758C48.0041 386.67 47.8012 386.537 47.6307 386.368C47.4601 386.199 47.3254 385.998 47.2345 385.775C47.1436 385.553 47.0985 385.315 47.1019 385.074L47.1666 379.694L39.4179 379.386C39.6689 389.801 40.0332 393.191 46.0735 392.521L60.4173 392.517Z" fill="#9A7E8E"/>
<path d="M64.3577 357.247C68.4095 356.311 71.9226 353.799 74.124 350.264C76.3254 346.729 77.0348 342.46 76.0962 338.396L71.7486 319.572C70.8787 315.805 67.2042 313.766 63.4489 314.633L44.66 315.66C40.9087 316.526 39.705 320.184 40.5749 323.95L46.3277 344.325C57.941 358.429 60.4743 357.398 64.3577 357.247Z" fill="url(#paint20_linear_1289_320)"/>
<path d="M73.4804 339.279C72.7223 339.454 71.9653 338.979 71.7897 338.219C71.6141 337.459 72.0863 336.7 72.8444 336.525C73.6026 336.35 74.3595 336.825 74.5351 337.585C74.7108 338.345 74.2385 339.104 73.4804 339.279Z" fill="#393936"/>
<path d="M60.1613 342.576C59.3683 342.759 58.5765 342.263 58.3928 341.468C58.2091 340.672 58.703 339.879 59.496 339.696C60.289 339.513 61.0808 340.009 61.2645 340.804C61.4482 341.6 60.9542 342.393 60.1613 342.576Z" fill="#393936"/>
<path d="M46.2754 339.203C45.9377 339.105 45.5805 339.094 45.2377 339.172C43.8492 339.493 43.1891 341.204 43.4822 343.049C43.9631 346.084 46.3446 346.897 49.4664 345.859" fill="#977B8B"/>
<path d="M40.4385 325.999C35.5025 311.032 37.7661 309.697 47.0685 306.132C47.104 306.123 56.197 303.648 62.8351 303.515C64.5615 303.494 66.2416 304.079 67.5836 305.17C68.9256 306.261 69.8446 307.788 70.181 309.486C71.1302 314.118 73.4207 324.845 73.4207 324.845C73.4207 324.845 67.8901 328.748 64.8578 329.435C60.0217 330.552 49.5766 329.71 49.6368 329.863C51.4947 334.435 49.1081 337.486 49.1081 337.486C49.264 338.921 49.5512 340.339 49.966 341.722C50.5651 343.91 51.6396 345.939 53.1124 347.663C54.5982 349.383 56.327 350.625 58.3169 349.491C70.4287 342.564 71.9675 348.201 73.4354 347.378C76.3533 345.746 76.4111 340.023 76.4111 340.023C76.4111 340.023 78.4069 352.46 66.2015 356.679C66.2015 356.679 60.3788 359.012 55.9695 354.367C53.0389 352.045 50.3911 349.385 48.0809 346.442L47.9272 346.19C47.3235 345.375 47.8186 340.322 44.3858 339.581C42.6194 339.202 43.0806 334.003 40.4385 325.999Z" fill="#201E23"/>
<path d="M67.2151 350.745C67.8498 350.599 68.4497 350.33 68.981 349.953C69.1092 349.859 69.1957 349.719 69.2222 349.562C69.2488 349.405 69.2133 349.243 69.1233 349.112C69.0827 349.046 69.0292 348.989 68.9659 348.945C68.9027 348.9 68.831 348.869 68.7554 348.854C68.6798 348.838 68.6018 348.838 68.5263 348.853C68.4507 348.869 68.3791 348.9 68.3158 348.944C67.8379 349.274 67.295 349.497 66.7237 349.599C66.1524 349.7 65.5659 349.679 65.0034 349.534C64.9282 349.516 64.8502 349.514 64.7741 349.528C64.698 349.541 64.6255 349.57 64.561 349.613C64.4966 349.655 64.4414 349.711 64.3991 349.775C64.3568 349.84 64.3281 349.913 64.3149 349.989C64.2822 350.145 64.3109 350.308 64.3948 350.444C64.4788 350.58 64.6117 350.678 64.7659 350.719C65.5693 350.919 66.4081 350.928 67.2151 350.745Z" fill="#6D555B"/>
<path d="M47.703 380.811H71.1477V383.934H47.703V380.811Z" fill="#216BCC"/>
<path d="M47.9227 373.986H71.3674V377.108H47.9227V373.986Z" fill="#216BCC"/>
<path d="M40.1088 370.656H72.278V367.533H40.9063C40.4929 368.53 40.2243 369.582 40.1088 370.656V370.656Z" fill="#216BCC"/>
<path d="M42.9517 364.081H59.5504L58.097 360.959H46.4779C44.9071 361.852 43.644 362.867 42.9517 364.081Z" fill="#216BCC"/>
<path d="M79.4286 364.082H63.3642L64.769 360.959L76.3639 360.862C77.6195 361.684 78.6684 362.786 79.4286 364.082V364.082Z" fill="#216BCC"/>
<path d="M40.0477 378.813L46.6305 379.069V375.946H39.9424L40.0477 378.813Z" fill="#216BCC"/>
<path d="M57.5497 358.819C58.1246 359.684 58.3594 360.659 59.4484 362.206L59.4849 356.89C58.7982 356.35 58.6306 356.394 57.6145 355.809L57.5497 358.819Z" fill="#715B6D"/>
<path d="M44.8568 392.424C45.4924 392.424 46.1523 392.383 46.8244 392.343C47.4964 392.302 48.1886 392.261 48.889 392.253H63.3704L63.7753 390.739L48.885 391.043C48.14 391.043 47.4275 391.092 46.7433 391.133C44.6057 391.262 43.5693 390.954 42.4358 389.833C41.2212 388.615 41.0391 383.893 41.2455 379.512L39.4601 379.443C39.6625 384.977 39.8367 389.89 41.3549 391.396C42.452 392.46 43.294 392.424 44.8568 392.424Z" fill="#625054" fill-opacity="0.54"/>
<line x1="46.8177" y1="380.228" x2="46.8177" y2="370.04" stroke="#216BCC" stroke-width="1.51421"/>
</g>
<path d="M67.9705 393.168H46.8814C46.4569 393.168 46.0498 393.336 45.7496 393.636C45.4495 393.936 45.2808 394.343 45.2808 394.768C45.2808 395.192 45.4495 395.599 45.7496 395.899C46.0498 396.199 46.4569 396.367 46.8814 396.367H67.9705V393.172V393.168Z" fill="url(#paint21_linear_1289_320)"/>
<path d="M103.967 371.631L102.939 369.829C102.587 369.216 102.078 368.707 101.466 368.354C100.853 368.001 100.157 367.817 99.4498 367.819L71.7348 367.927C71.2806 367.929 70.839 368.075 70.4735 368.345C70.108 368.614 69.8377 368.993 69.7016 369.426L61.9401 393.265C61.5796 395.982 63.8472 396.245 65.5667 396.331L71.4825 371.692C71.6153 371.283 71.8786 370.928 72.2321 370.683C72.5857 370.438 73.0099 370.315 73.4399 370.334L103.967 371.631Z" fill="#41166C"/>
<path d="M65.5554 396.367H94.6835C95.0344 396.367 95.3762 396.257 95.6609 396.052C95.9455 395.847 96.1585 395.558 96.2697 395.225L103.851 372.459C103.935 372.209 103.958 371.941 103.918 371.68C103.879 371.418 103.777 371.17 103.623 370.955C103.468 370.741 103.265 370.566 103.029 370.445C102.794 370.325 102.533 370.262 102.268 370.262H73.1367C72.7863 370.262 72.4449 370.372 72.1609 370.577C71.8768 370.782 71.6645 371.072 71.554 371.404L63.9621 394.17C63.8777 394.421 63.8547 394.69 63.8949 394.952C63.9351 395.214 64.0374 395.463 64.1932 395.678C64.349 395.893 64.5538 396.068 64.7908 396.188C65.0277 396.307 65.2899 396.369 65.5554 396.367V396.367Z" fill="url(#paint22_linear_1289_320)"/>
<path opacity="0.8" d="M81.0488 385.022L81.723 381.528C81.7426 381.422 81.7885 381.322 81.8565 381.238C81.9245 381.155 82.0124 381.089 82.1123 381.048L85.6127 379.607C85.7168 379.563 85.8309 379.548 85.943 379.562C86.0551 379.577 86.1613 379.621 86.2507 379.69L88.9833 381.755C89.0805 381.827 89.155 381.926 89.1983 382.04C89.2417 382.153 89.2522 382.277 89.2284 382.396L88.558 385.887C88.5371 385.993 88.4902 386.092 88.4216 386.176C88.3531 386.259 88.2649 386.325 88.165 386.366L84.6646 387.807C84.5607 387.849 84.4476 387.864 84.3364 387.849C84.2252 387.835 84.1197 387.792 84.0301 387.724L81.2939 385.656C81.1977 385.584 81.1237 385.487 81.0804 385.374C81.0371 385.262 81.0261 385.14 81.0488 385.022V385.022Z" fill="#783CAE"/>
<g opacity="0.9">
<g opacity="0.8" filter="url(#filter5_d_1289_320)">
<path d="M190.648 336.022H173.51V355.638H190.648V336.022Z" fill="#76C5FF"/>
<path d="M192.79 304.044C189.407 306.576 181.099 322.833 181.777 327.13C181.657 331.226 182.574 332.827 185.644 328.962C186.158 328.31 185.972 325.864 186.762 325.078C187.064 324.788 188.159 328.873 188.699 328.15C189.616 326.933 189.217 323.522 189.966 323.272C191.322 322.822 192.175 326.65 192.678 326.434C193.051 326.27 193.796 323.358 193.498 318.052C193.595 318.272 195.052 323.593 195.849 322.792C196.114 322.531 196.352 304.506 196.352 304.506C195.104 302.562 193.901 303.217 192.79 304.044Z" fill="#0F0D0E"/>
<path d="M164.362 295.643C167.745 298.175 176.054 314.432 175.376 318.729C175.495 322.825 174.578 324.423 171.508 320.562C170.994 319.91 171.18 317.46 170.391 316.678C170.089 316.384 168.993 320.468 168.453 319.746C167.537 318.528 167.939 315.121 167.186 314.868C165.83 314.418 170.912 319.184 168.244 319.158C167.827 319.158 163.338 314.954 163.654 309.648C163.557 309.867 162.715 313.334 161.937 314.086C161.877 314.144 161.802 314.183 161.721 314.199C161.639 314.214 161.555 314.205 161.479 314.173C161.402 314.141 161.337 314.087 161.291 314.018C161.245 313.949 161.221 313.867 161.221 313.785L163.535 296.656C164.779 297.155 163.252 294.828 164.362 295.643Z" fill="#0F0D0E"/>
<path d="M184.09 330.153L184.03 321.44L176.702 321.161L176.184 330.153H171.34L171.679 335.575C176.493 338.278 181.568 339.488 187.503 335.795L187.972 330.153H184.09Z" fill="url(#paint23_linear_1289_320)"/>
<path d="M183.934 354.904L185.834 330.053C197.183 330.295 202.414 336.267 202.414 347.371L202.697 353.82C202.865 363.978 198.599 362.928 193.584 362.928H158.934L160.797 343.067C160.797 337.854 160.797 332.227 168.822 330.161L174.467 330.079L176.289 354.025" fill="url(#paint24_linear_1289_320)"/>
<path d="M179.123 326.672C177.198 326.672 175.292 326.294 173.513 325.558C171.734 324.822 170.118 323.743 168.756 322.383C167.395 321.022 166.315 319.407 165.578 317.63C164.841 315.852 164.462 313.947 164.462 312.023L164.767 293.331C164.767 289.73 167.811 286.178 171.414 286.178L188.348 288.345C191.951 288.345 193.095 294.087 193.095 297.688L193.602 310.392C185.99 325.629 182.692 325.998 179.123 326.672Z" fill="url(#paint25_radial_1289_320)"/>
<path opacity="0.75" d="M168.018 312.857C168.746 312.857 169.337 312.267 169.337 311.539C169.337 310.811 168.746 310.221 168.018 310.221C167.289 310.221 166.699 310.811 166.699 311.539C166.699 312.267 167.289 312.857 168.018 312.857Z" fill="#261E22"/>
<path opacity="0.75" d="M181.31 312.552C182.071 312.552 182.689 311.935 182.689 311.174C182.689 310.414 182.071 309.797 181.31 309.797C180.549 309.797 179.931 310.414 179.931 311.174C179.931 311.935 180.549 312.552 181.31 312.552Z" fill="#261E22"/>
<path d="M190.785 305.455C191.165 305.241 191.593 305.128 192.029 305.127C193.792 305.127 195.364 306.989 195.222 309.294C194.928 314.112 190.547 314.198 188.781 314.198" fill="#DED1E3"/>
<path opacity="0.75" d="M175.707 321.224C174.331 321.174 173.004 320.702 171.907 319.873C171.846 319.831 171.795 319.778 171.755 319.716C171.715 319.654 171.688 319.585 171.674 319.513C171.661 319.441 171.662 319.366 171.678 319.295C171.694 319.223 171.723 319.155 171.765 319.094C171.807 319.034 171.86 318.982 171.922 318.943C171.984 318.903 172.053 318.876 172.125 318.863C172.197 318.849 172.271 318.851 172.343 318.866C172.415 318.882 172.483 318.911 172.544 318.953C174.779 320.491 176.69 320.498 178.594 318.975C178.71 318.882 178.859 318.84 179.006 318.856C179.154 318.872 179.289 318.947 179.382 319.063C179.475 319.179 179.518 319.327 179.502 319.475C179.485 319.622 179.411 319.757 179.295 319.85C178.294 320.71 177.026 321.196 175.707 321.224V321.224Z" fill="#261E22"/>
<path d="M195.04 300.331L187.447 294.683L186.426 296.719C185.499 301.042 189.761 301.56 189.761 301.56C189.209 307.562 189.694 311.844 190.085 310.943C192.444 305.529 194.556 305.336 194.597 305.44C194.947 306.147 195.26 306.78 195.562 307.38L195.447 300.718C195.325 300.576 195.189 300.446 195.04 300.331Z" fill="#1C1719"/>
<path d="M178.787 281.721C162.62 281.674 161.785 290.089 161.521 301.372C174.058 300.833 186.222 302.599 196.568 306.199C196.089 296.084 199.221 281.8 178.787 281.721Z" fill="url(#paint26_linear_1289_320)"/>
<path d="M185.033 339.589C186.367 338.099 187.82 337.314 190.029 338.379L185.782 330.027L185.033 339.589Z" fill="#CCDAF4"/>
<path d="M175.23 339.637C173.897 338.148 172.25 337.601 170.037 338.669L174.485 330.072L175.23 339.637Z" fill="#CCDAF4"/>
<path d="M180.867 354.487H171.731V363.553H180.867V354.487Z" fill="#F3EBFF"/>
<path d="M189.384 303.668C178.125 299.918 169.958 302.011 165.125 303.917V302.141C169.451 300.108 180.029 300.361 189.447 303.541L189.384 303.668Z" fill="#99CAFF"/>
<path d="M155.864 305.479C155.864 305.479 151.119 308.009 155.477 310.529C155.477 310.529 161.156 311.605 165.902 302.782C162.454 302.466 158.986 303.97 155.864 305.479Z" fill="#533174"/>
<path d="M175.452 295.895C177.92 295.895 179.92 293.897 179.92 291.431C179.92 288.965 177.92 286.966 175.452 286.966C172.985 286.966 170.985 288.965 170.985 291.431C170.985 293.897 172.985 295.895 175.452 295.895Z" fill="#FFC5D8" fill-opacity="0.56"/>
<path d="M195.029 354.777C194.881 354.777 194.739 354.718 194.634 354.614C194.529 354.509 194.47 354.367 194.47 354.219L194.444 341.186C194.444 341.038 194.503 340.896 194.608 340.791C194.713 340.687 194.855 340.628 195.003 340.628C195.151 340.628 195.293 340.687 195.398 340.791C195.503 340.896 195.562 341.038 195.562 341.186L195.588 354.219C195.588 354.366 195.529 354.508 195.425 354.612C195.321 354.717 195.18 354.776 195.033 354.777H195.029Z" fill="#1C64A5"/>
<path d="M181.557 355.522C181.409 355.522 181.267 355.463 181.162 355.358C181.057 355.254 180.998 355.112 180.998 354.963C180.998 354.815 181.057 354.673 181.162 354.569C181.267 354.464 181.409 354.405 181.557 354.405L198.07 354.379C198.218 354.379 198.36 354.438 198.465 354.542C198.57 354.647 198.629 354.789 198.629 354.937C198.629 355.085 198.57 355.228 198.465 355.332C198.36 355.437 198.218 355.496 198.07 355.496L181.557 355.522Z" fill="#1C64A5"/>
<path opacity="0.75" d="M170.197 309.041H165.756C165.608 309.041 165.466 308.982 165.361 308.877C165.256 308.773 165.197 308.63 165.197 308.482C165.197 308.334 165.256 308.192 165.361 308.087C165.466 307.983 165.608 307.924 165.756 307.924H170.19C170.338 307.924 170.48 307.983 170.585 308.087C170.69 308.192 170.748 308.334 170.748 308.482C170.748 308.63 170.69 308.773 170.585 308.877C170.48 308.982 170.338 309.041 170.19 309.041H170.197Z" fill="#261E22"/>
<path opacity="0.75" d="M182.979 309.041H178.549C178.401 309.041 178.259 308.982 178.154 308.877C178.049 308.773 177.99 308.63 177.99 308.482C177.99 308.334 178.049 308.192 178.154 308.087C178.259 307.983 178.401 307.924 178.549 307.924H182.979C183.127 307.924 183.269 307.983 183.374 308.087C183.479 308.192 183.538 308.334 183.538 308.482C183.538 308.63 183.479 308.773 183.374 308.877C183.269 308.982 183.127 309.041 182.979 309.041Z" fill="#261E22"/>
<path d="M191.311 304.31C191.311 304.31 188.721 314.23 178.434 309.095C174.04 306.903 164.617 302.257 153.635 307.215C153.635 307.215 158.578 301.697 162.138 300.436C172.485 299.415 187.647 300.55 191.311 304.31Z" fill="url(#paint27_linear_1289_320)"/>
<path opacity="0.6" d="M178.718 326.297C177.958 326.334 177.196 326.256 176.459 326.066L176.416 325.95C179.726 326.69 187.242 320.455 189.655 313.24L192.187 313.192C188.267 319.779 184.769 326.297 178.718 326.297Z" fill="#A99EAA"/>
<line y1="-0.648947" x2="19.2325" y2="-0.648947" transform="matrix(4.45694e-08 -1 -1 -3.90612e-08 191.311 304.45)" stroke="#6B3C97" stroke-width="1.29789"/>
<path opacity="0.6" d="M184.199 330.24C183.745 331.049 184.63 328.923 183.848 329.579L182.097 325.523C182.844 325.314 183.554 324.988 184.199 324.557V330.24Z" fill="#A99EAA"/>
</g>
<path d="M171.581 364.059H192.063C192.475 364.059 192.87 364.222 193.162 364.514C193.453 364.805 193.617 365.2 193.617 365.612C193.617 366.024 193.453 366.419 193.162 366.711C192.87 367.002 192.475 367.166 192.063 367.166H171.581V364.062V364.059Z" fill="url(#paint28_linear_1289_320)"/>
<path d="M136.622 343.142L137.62 341.392C137.962 340.797 138.456 340.302 139.051 339.96C139.646 339.617 140.322 339.437 141.009 339.44L167.926 339.545C168.367 339.547 168.796 339.689 169.151 339.95C169.505 340.212 169.768 340.58 169.9 341L177.438 364.153C177.788 366.791 175.586 367.047 173.916 367.131L168.171 343.201C168.042 342.804 167.786 342.459 167.443 342.221C167.099 341.983 166.687 341.864 166.27 341.882L136.622 343.142Z" fill="#41166C"/>
<path d="M173.928 367.166H145.639C145.298 367.166 144.966 367.059 144.689 366.859C144.413 366.66 144.206 366.38 144.098 366.057L136.735 343.946C136.653 343.703 136.631 343.443 136.67 343.189C136.708 342.935 136.806 342.694 136.957 342.486C137.107 342.277 137.304 342.107 137.533 341.99C137.762 341.873 138.015 341.812 138.272 341.812H166.565C166.905 341.812 167.237 341.919 167.513 342.118C167.788 342.317 167.995 342.598 168.102 342.921L175.475 365.031C175.557 365.276 175.58 365.536 175.541 365.791C175.502 366.046 175.402 366.288 175.251 366.496C175.1 366.705 174.901 366.875 174.67 366.991C174.44 367.107 174.186 367.167 173.928 367.166V367.166Z" fill="url(#paint29_linear_1289_320)"/>
<path opacity="0.8" d="M158.879 356.147L158.224 352.753C158.205 352.65 158.161 352.554 158.095 352.473C158.029 352.391 157.943 352.328 157.846 352.288L154.447 350.888C154.346 350.846 154.235 350.831 154.126 350.845C154.017 350.859 153.914 350.902 153.827 350.969L151.173 352.974C151.079 353.045 151.006 353.141 150.964 353.251C150.922 353.361 150.912 353.481 150.935 353.597L151.586 356.987C151.607 357.09 151.652 357.187 151.719 357.268C151.785 357.349 151.871 357.412 151.968 357.453L155.368 358.852C155.468 358.893 155.578 358.907 155.686 358.893C155.794 358.879 155.897 358.837 155.984 358.772L158.641 356.763C158.735 356.693 158.806 356.598 158.849 356.489C158.891 356.381 158.901 356.262 158.879 356.147V356.147Z" fill="#783CAE"/>
</g>
<g opacity="0.8" filter="url(#filter6_d_1289_320)">
<path d="M1076.92 70.0329C1072.1 72.4372 1070.95 77.6633 1070.95 85.5323L1070.67 91.8693C1070.5 101.878 1074.7 100.849 1079.66 100.849H1113.84L1111.99 81.2754C1111.99 77.175 1111.99 72.8695 1108.04 70.2378" fill="url(#paint30_linear_1289_320)"/>
<path d="M1092.4 76.847C1083.89 76.847 1077 73.6844 1077 69.7832C1077 65.8819 1083.89 62.7193 1092.4 62.7193C1100.91 62.7193 1107.8 65.8819 1107.8 69.7832C1107.8 73.6844 1100.91 76.847 1092.4 76.847Z" fill="url(#paint31_linear_1289_320)"/>
<path d="M1075.81 101.342C1076.4 101.342 1077.01 101.305 1077.62 101.268C1078.24 101.231 1078.89 101.193 1079.53 101.19L1089.99 101.342V100.224L1079.53 100.071C1078.84 100.071 1078.19 100.116 1077.55 100.153C1075.59 100.273 1073.88 100.373 1072.84 99.3407C1071.72 98.2224 1071.26 95.7361 1071.45 91.714L1071.74 86.5586C1071.75 86.4044 1071.73 86.25 1071.68 86.1044C1071.63 85.9589 1071.55 85.8251 1071.44 85.7111C1071.34 85.5971 1071.21 85.5051 1071.07 85.4407C1070.93 85.3763 1070.78 85.3407 1070.62 85.336V85.336L1070.34 91.673C1070.13 96.1461 1070.66 98.7555 1072.06 100.153C1073.05 101.123 1074.37 101.342 1075.81 101.342Z" fill="#1C64A5"/>
<path d="M1079.46 65.9922C1079.5 65.9743 1079.54 65.9651 1079.59 65.9651C1079.63 65.9651 1079.68 65.9743 1079.72 65.9922C1077.76 67.0583 1076.12 70.6778 1080.8 73.1306C1083.34 74.4987 1086.14 75.2929 1089.02 75.4566C1089.32 75.473 1089.6 75.6049 1089.8 75.8246C1090.01 76.0442 1090.12 76.3346 1090.11 76.6346V76.6346C1080.17 76.3103 1076.94 71.8334 1077 69.7347C1077.05 68.4375 1077.8 67.1105 1079.46 65.9922Z" fill="#1C64A5"/>
<path d="M1105.31 65.884C1105.27 65.8669 1105.23 65.8581 1105.18 65.8581C1105.14 65.8581 1105.1 65.8669 1105.06 65.884C1106.99 66.9501 1108.6 70.5697 1103.99 73.0225C1101.51 74.3853 1098.76 75.1787 1095.94 75.3448C1095.62 75.3656 1095.33 75.505 1095.11 75.7347C1094.89 75.9645 1094.77 76.2674 1094.77 76.5823V76.7165C1102.29 77.6559 1107.77 71.7252 1107.72 69.634C1107.68 68.348 1106.94 67.0134 1105.31 65.884Z" fill="#1C64A5"/>
<path d="M1088.88 71.3671L1091.69 73.6037C1091.91 73.7839 1092.19 73.8822 1092.48 73.8822C1092.77 73.8822 1093.05 73.7839 1093.28 73.6037L1095.79 71.6206L1095.76 65.9508L1089.17 65.1196L1088.88 71.3671Z" fill="#F3EBFF"/>
<path d="M1093.34 66.9576C1097.18 66.9576 1100.86 65.4366 1103.57 62.7291C1106.28 60.0216 1107.8 56.3494 1107.8 52.5205V26.7251C1107.8 25.8815 1107.64 25.0461 1107.31 24.2667C1106.99 23.4872 1106.52 22.779 1105.92 22.1825C1105.32 21.586 1104.61 21.1129 1103.83 20.7903C1103.05 20.4677 1102.22 20.3019 1101.37 20.3024L1084.27 25.6888C1080.72 25.6888 1078.88 28.712 1078.88 32.2607L1079.06 50.8989C1086.57 65.9288 1089.82 66.2904 1093.34 66.9576Z" fill="url(#paint32_radial_1289_320)"/>
<path d="M1104.3 52.5463C1103.58 52.5463 1103 51.9655 1103 51.249C1103 50.5326 1103.58 49.9518 1104.3 49.9518C1105.02 49.9518 1105.6 50.5326 1105.6 51.249C1105.6 51.9655 1105.02 52.5463 1104.3 52.5463Z" fill="#5B5159"/>
<path d="M1091.19 52.2446C1090.44 52.2446 1089.83 51.6372 1089.83 50.8878C1089.83 50.1384 1090.44 49.5309 1091.19 49.5309C1091.94 49.5309 1092.55 50.1384 1092.55 50.8878C1092.55 51.6372 1091.94 52.2446 1091.19 52.2446Z" fill="#5B5159"/>
<path d="M1081.84 46.0454C1081.47 45.8353 1081.04 45.7249 1080.61 45.7248C1078.87 45.7248 1077.63 47.5663 1077.46 49.8252C1077.2 53.5528 1079.81 55.1632 1083.81 54.7904" fill="#DACEDF"/>
<path d="M1096.71 61.5972C1098.07 61.5483 1099.38 61.0823 1100.47 60.2627C1100.53 60.2208 1100.58 60.1675 1100.62 60.1057C1100.66 60.0439 1100.69 59.9749 1100.7 59.9025C1100.71 59.8302 1100.71 59.7559 1100.7 59.684C1100.68 59.6122 1100.65 59.5441 1100.61 59.4836C1100.57 59.4232 1100.52 59.3716 1100.45 59.3318C1100.39 59.2919 1100.32 59.2646 1100.25 59.2515C1100.18 59.2383 1100.1 59.2395 1100.03 59.255C1099.96 59.2706 1099.89 59.3001 1099.83 59.3419C1097.64 60.8554 1095.75 60.8629 1093.86 59.3681C1093.74 59.2751 1093.59 59.232 1093.44 59.248C1093.3 59.2641 1093.16 59.3381 1093.07 59.4538C1092.98 59.5695 1092.93 59.7174 1092.95 59.8649C1092.96 60.0124 1093.04 60.1474 1093.15 60.2404C1094.15 61.0913 1095.4 61.571 1096.71 61.5972V61.5972Z" fill="#5B5159"/>
<path d="M1087.86 20.9397H1088C1091.74 20.9397 1093.78 20.3844 1092.73 18.7666C1092.73 18.7666 1088.29 13.4472 1086.61 10.3421C1086.53 10.2066 1086.5 10.0533 1086.52 9.90025C1086.53 9.7472 1086.58 9.60092 1086.68 9.47879C1086.77 9.35667 1086.9 9.26389 1087.04 9.21142C1087.19 9.15894 1087.34 9.14903 1087.49 9.18284C1087.49 9.18284 1111.57 15.1843 1113.58 24.7942C1113.58 24.7942 1114.08 30.9783 1110.13 35.3322C1107.4 38.3441 1102.38 40.7447 1099.51 40.7335C1094.93 40.7335 1085.95 36.7189 1086 36.8643C1087.45 41.6767 1082.85 42.2134 1082.85 42.2134C1082.08 50.1943 1078.37 43.5927 1078.3 43.4622C1076.89 41.412 1066.2 24.7419 1087.86 20.9397Z" fill="#1D1D1B"/>
<path d="M1090.07 55.6928C1090.73 55.6928 1091.42 55.6666 1092.14 55.6144C1094.49 55.4467 1096.46 53.5381 1096.93 50.9735L1097.23 49.3706C1097.51 47.8796 1096.62 46.4333 1095.24 46.1649C1092.61 45.6124 1089.9 45.4181 1087.21 45.5871C1085.69 45.6989 1084.48 47.0409 1084.42 48.7108L1084.31 51.3687C1084.23 53.5009 1085.66 55.3386 1087.56 55.5548C1088.4 55.6474 1089.24 55.6935 1090.07 55.6928ZM1089.07 46.8247C1091.06 46.8384 1093.04 47.0468 1094.99 47.4472C1095.66 47.5739 1096.09 48.3493 1095.95 49.1321L1095.65 50.7387C1095.27 52.7181 1093.8 54.1867 1092.05 54.3135C1090.6 54.4292 1089.15 54.4105 1087.71 54.2576V54.2576C1086.48 54.1197 1085.56 52.8709 1085.62 51.4208L1085.72 48.7631C1085.77 47.7566 1086.45 46.9514 1087.31 46.8993C1087.89 46.8471 1088.46 46.8247 1089.07 46.8247Z" fill="#1D1D1B"/>
<path d="M1106.34 55.9945C1106.91 55.9945 1107.46 55.9722 1108.01 55.9312C1109.92 55.7783 1111.4 53.9891 1111.38 51.8569L1111.36 49.1953C1111.36 47.5253 1110.19 46.1424 1108.67 45.9784C1105.99 45.7161 1103.28 45.8164 1100.62 46.2766C1099.25 46.4966 1098.31 47.9056 1098.54 49.4115L1098.78 51.0256C1099.16 53.6052 1101.09 55.577 1103.43 55.8268C1104.39 55.9353 1105.36 55.9913 1106.34 55.9945V55.9945ZM1107.9 54.6302C1106.46 54.73 1105 54.6963 1103.57 54.5296C1101.81 54.3432 1100.38 52.8223 1100.07 50.8318L1099.83 49.2177C1099.71 48.4274 1100.17 47.6707 1100.83 47.5664C1103.37 47.1254 1105.96 47.0276 1108.53 47.2756C1109.39 47.3688 1110.05 48.2 1110.05 49.2065L1110.08 51.8681C1110.08 53.3181 1109.13 54.5333 1107.9 54.6302V54.6302Z" fill="#1D1D1B"/>
<path d="M1097.66 50.1722C1097.06 50.1722 1096.45 50.3176 1096.17 50.9177H1096.14L1095.8 46.9142L1100.02 46.8434L1098.98 50.9661L1099.27 50.7015C1099 50.0902 1098.26 50.1834 1097.66 50.1722Z" fill="#1D1D1B"/>
<path d="M1085.12 48.2226L1085.58 47.2013L1078.94 44.3794L1079.01 46.2209L1085.12 48.2226Z" fill="#1D1D1B"/>
<path d="M1091.43 74.5359C1091.51 74.5364 1091.58 74.5199 1091.65 74.4875C1091.72 74.4576 1091.78 74.4145 1091.83 74.3608C1091.89 74.3071 1091.93 74.2437 1091.95 74.1744C1091.98 74.1051 1091.99 74.0313 1091.99 73.957C1091.99 73.8828 1091.97 73.8097 1091.94 73.742C1091.51 72.7728 1090.72 71.4532 1088.83 71.2034C1086.81 70.935 1085.95 70.0851 1085.58 69.4403C1085.51 69.3108 1085.38 69.2154 1085.24 69.1753C1085.1 69.1351 1084.94 69.1533 1084.81 69.2259C1084.68 69.2986 1084.59 69.4197 1084.55 69.5627C1084.51 69.7056 1084.53 69.8587 1084.6 69.9882C1085.1 70.8679 1086.21 71.9825 1088.68 72.3105C1089.98 72.4857 1090.54 73.3207 1090.92 74.1967C1090.96 74.2966 1091.03 74.3818 1091.12 74.442C1091.21 74.5022 1091.32 74.5348 1091.43 74.5359V74.5359Z" fill="#1C64A5"/>
<path d="M1093.41 74.536C1093.52 74.5369 1093.63 74.5059 1093.72 74.447C1093.81 74.388 1093.88 74.3036 1093.92 74.2042C1094.31 73.3282 1094.86 72.4932 1096.16 72.318C1098.63 71.99 1099.74 70.8754 1100.24 69.9957C1100.28 69.9316 1100.31 69.8599 1100.32 69.7849C1100.33 69.7098 1100.33 69.6332 1100.31 69.5594C1100.29 69.4857 1100.26 69.4165 1100.21 69.356C1100.17 69.2956 1100.11 69.2452 1100.04 69.2079C1099.98 69.1706 1099.9 69.1472 1099.83 69.1391C1099.75 69.131 1099.67 69.1384 1099.6 69.1608C1099.53 69.1833 1099.46 69.2203 1099.4 69.2697C1099.35 69.319 1099.3 69.3796 1099.27 69.4478C1098.89 70.1038 1098.03 70.9388 1096.02 71.2109C1094.13 71.4607 1093.34 72.7803 1092.9 73.7495C1092.87 73.817 1092.86 73.8899 1092.85 73.964C1092.85 74.038 1092.86 74.1118 1092.89 74.181C1092.92 74.2503 1092.96 74.3137 1093.01 74.3676C1093.06 74.4215 1093.12 74.4648 1093.19 74.495C1093.26 74.5239 1093.33 74.5379 1093.41 74.536V74.536Z" fill="#1C64A5"/>
<path d="M1091.35 99.8725L1092.02 101.524C1092.48 101.897 1096.04 101.897 1096.5 101.524L1098.25 100.122L1099.22 95.0676C1097.32 93.8561 1094.17 92.831 1091.63 93.6138L1091.35 99.8725Z" fill="#F3EBFF"/>
<path opacity="0.6" d="M1093.85 66.7898C1094.53 66.7901 1095.2 66.6845 1095.85 66.4767L1095.9 66.3127C1092.78 67.0061 1085.38 61.7464 1083.11 54.9471L1081.04 54.839C1084.73 61.0418 1088.13 66.7898 1093.85 66.7898Z" fill="#CABFCE"/>
<path opacity="0.6" d="M1088.93 71.2481C1089.64 71.2481 1090.43 71.6618 1091.21 72.2955L1091.26 66.2941C1090.52 66.1709 1089.82 65.8774 1089.21 65.4367L1088.93 71.2481Z" fill="#CABFCE"/>
<path opacity="0.6" d="M1091.34 98.2017H1097.64V100.001H1091.34V98.2017Z" fill="#CABFCE"/>
<g clip-path="url(#clip0_1289_320)">
<path d="M1075.57 91.559C1076.44 91.3607 1077.3 91.2111 1078.13 91.0824C1078.13 91.0732 1078.13 91.0637 1078.13 91.0545C1078.63 89.1855 1078.56 87.2247 1077.92 85.3905C1077.9 85.3245 1077.89 85.2551 1077.9 85.1863C1077.91 85.1175 1077.93 85.0506 1077.96 84.9896C1078 84.9285 1078.05 84.8743 1078.1 84.8303C1078.16 84.7863 1078.23 84.7532 1078.3 84.7329C1078.37 84.7121 1078.44 84.7045 1078.52 84.7108C1078.59 84.717 1078.67 84.737 1078.73 84.7694C1078.8 84.8018 1078.85 84.846 1078.9 84.8995C1078.95 84.953 1078.98 85.0147 1079.01 85.0809C1079.66 86.9776 1079.76 89.0005 1079.31 90.9467C1082.54 90.5605 1085.83 90.919 1088.87 91.9904C1088.97 92.025 1089.05 92.0836 1089.12 92.1597C1089.18 92.2358 1089.22 92.3265 1089.23 92.4218L1089.35 93.4656L1091.7 93.563C1091.85 93.5658 1091.99 93.6235 1092.09 93.7233C1092.2 93.8231 1092.25 93.9569 1092.25 94.0953C1092.25 94.2337 1092.18 94.3654 1092.08 94.4613C1091.97 94.5572 1091.82 94.6095 1091.67 94.6067H1091.65L1088.82 94.492C1088.68 94.4855 1088.55 94.435 1088.46 94.3497C1088.36 94.2644 1088.3 94.1497 1088.28 94.0258L1088.14 92.8464C1084.51 91.6113 1080.49 91.5243 1075.85 92.5785C1075.77 92.598 1075.7 92.6036 1075.62 92.5951C1075.55 92.5866 1075.47 92.5641 1075.41 92.529C1075.34 92.4939 1075.29 92.447 1075.24 92.3908C1075.19 92.3347 1075.16 92.2706 1075.14 92.2024C1075.12 92.1342 1075.12 92.0633 1075.13 91.994C1075.15 91.9246 1075.17 91.8583 1075.21 91.7989C1075.25 91.7395 1075.31 91.6882 1075.37 91.6482C1075.43 91.6082 1075.5 91.5802 1075.58 91.566L1075.57 91.559Z" fill="#1C64A5"/>
</g>
<path d="M1100.94 99.7779H1079.43C1078.99 99.7779 1078.58 99.9498 1078.27 100.256C1077.97 100.562 1077.79 100.977 1077.79 101.41C1077.79 101.843 1077.97 102.258 1078.27 102.564C1078.58 102.87 1078.99 103.042 1079.43 103.042H1100.94V99.7816V99.7779Z" fill="url(#paint33_linear_1289_320)"/>
<path d="M1137.67 77.8023L1136.63 75.9642C1136.27 75.3387 1135.75 74.8195 1135.12 74.4593C1134.5 74.099 1133.79 73.9105 1133.06 73.913L1104.79 74.0233C1104.32 74.0254 1103.87 74.1747 1103.5 74.4496C1103.13 74.7245 1102.85 75.1107 1102.71 75.5525L1094.79 99.877C1094.42 102.649 1096.74 102.917 1098.49 103.005L1104.53 77.8647C1104.66 77.4473 1104.93 77.0857 1105.29 76.8354C1105.65 76.5851 1106.09 76.4598 1106.53 76.4789L1137.67 77.8023Z" fill="#41166C"/>
<path d="M1098.48 103.042H1128.2C1128.56 103.042 1128.91 102.93 1129.2 102.72C1129.49 102.511 1129.71 102.216 1129.82 101.877L1137.56 78.6477C1137.64 78.3918 1137.67 78.1193 1137.63 77.8525C1137.58 77.5856 1137.48 77.3322 1137.32 77.1132C1137.17 76.8942 1136.96 76.7157 1136.72 76.5927C1136.48 76.4696 1136.21 76.4054 1135.94 76.4054H1106.22C1105.86 76.4057 1105.51 76.5183 1105.22 76.7275C1104.93 76.9366 1104.71 77.2316 1104.6 77.5707L1096.86 100.8C1096.77 101.057 1096.75 101.33 1096.79 101.598C1096.83 101.866 1096.93 102.12 1097.09 102.339C1097.25 102.558 1097.46 102.736 1097.7 102.859C1097.94 102.981 1098.21 103.044 1098.48 103.042V103.042Z" fill="url(#paint34_linear_1289_320)"/>
<path opacity="0.8" d="M1114.29 91.4664L1114.98 87.9006C1115 87.7924 1115.04 87.6909 1115.11 87.6055C1115.18 87.5201 1115.27 87.4535 1115.37 87.4117L1118.95 85.9412C1119.05 85.8964 1119.17 85.8806 1119.28 85.8955C1119.4 85.9103 1119.51 85.9553 1119.6 86.0258L1122.39 88.1322C1122.48 88.2066 1122.56 88.3075 1122.6 88.4233C1122.65 88.5391 1122.66 88.665 1122.64 88.7865L1121.95 92.3486C1121.93 92.4568 1121.88 92.5581 1121.81 92.6434C1121.74 92.7287 1121.65 92.7954 1121.55 92.8376L1117.98 94.308C1117.87 94.351 1117.76 94.3658 1117.64 94.351C1117.53 94.3362 1117.42 94.2922 1117.33 94.2234L1114.54 92.1134C1114.44 92.0398 1114.37 91.9401 1114.32 91.8257C1114.28 91.7113 1114.27 91.5868 1114.29 91.4664V91.4664Z" fill="#783CAE"/>
</g>
<g opacity="0.8" filter="url(#filter7_d_1289_320)">
<path d="M1198.97 112.624L1198.91 103.485L1191.23 103.192L1190.68 112.624H1185.6V120.423L1197.97 134.135L1203.03 112.624H1198.97Z" fill="url(#paint35_linear_1289_320)"/>
<path d="M1208.14 146.756H1171.84L1173.79 125.931C1173.79 120.449 1173.79 114.569 1182.2 112.414H1185.04L1190.74 116.796C1192.62 122.034 1193.28 136.456 1196.81 117.411L1201.27 112.113C1213.16 112.365 1217.41 118.816 1217.41 130.459L1217.71 137.218C1217.86 147.856 1213.41 146.756 1208.14 146.756Z" fill="url(#paint36_linear_1289_320)"/>
<path d="M1195.28 93.9362C1196.08 93.9362 1196.73 93.289 1196.73 92.4906C1196.73 91.6922 1196.08 91.045 1195.28 91.045C1194.48 91.045 1193.84 91.6922 1193.84 92.4906C1193.84 93.289 1194.48 93.9362 1195.28 93.9362Z" fill="black"/>
<path d="M1208.92 138.221C1208.77 138.221 1208.63 138.162 1208.52 138.057C1208.42 137.952 1208.36 137.81 1208.36 137.661L1208.32 124.005C1208.32 123.931 1208.33 123.858 1208.36 123.79C1208.39 123.721 1208.43 123.659 1208.48 123.607C1208.54 123.554 1208.6 123.513 1208.67 123.485C1208.73 123.456 1208.81 123.442 1208.88 123.442V123.442C1209.03 123.443 1209.17 123.502 1209.28 123.608C1209.38 123.713 1209.44 123.856 1209.44 124.005L1209.47 137.669C1209.47 137.818 1209.41 137.961 1209.3 138.067C1209.2 138.173 1209.06 138.232 1208.91 138.232L1208.92 138.221Z" fill="#1C64A5"/>
<path d="M1194.81 139.024C1194.66 139.024 1194.51 138.965 1194.41 138.859C1194.3 138.753 1194.24 138.61 1194.24 138.461C1194.24 138.311 1194.3 138.168 1194.41 138.063C1194.51 137.957 1194.66 137.898 1194.81 137.898L1212.11 137.875C1212.25 137.875 1212.4 137.934 1212.5 138.039C1212.61 138.143 1212.67 138.286 1212.67 138.434C1212.67 138.584 1212.61 138.728 1212.5 138.834C1212.4 138.94 1212.26 139 1212.11 139.001L1194.81 139.024Z" fill="#1C64A5"/>
<path opacity="0.6" d="M1198.98 112.601C1198.51 112.856 1198.38 113.116 1198.07 113.202L1196.62 107.844C1197.46 107.612 1198.25 107.248 1198.97 106.766L1198.98 112.601Z" fill="#BCBCBC"/>
<path d="M1195.68 137.979H1185.6V146.233H1195.68V137.979Z" fill="#F3EBFF"/>
<path d="M1211.32 147.153C1210.68 147.153 1210.02 147.112 1209.34 147.071C1208.67 147.029 1207.97 146.988 1207.26 146.984L1195.85 147.153V145.929L1207.28 145.76C1208.03 145.76 1208.74 145.809 1209.44 145.85C1211.59 145.982 1213.45 146.094 1214.59 144.964C1215.81 143.751 1216.31 141.022 1216.09 136.621L1215.77 130.989C1215.76 130.819 1215.78 130.65 1215.84 130.49C1215.9 130.33 1215.98 130.184 1216.1 130.06C1216.21 129.935 1216.35 129.835 1216.51 129.766C1216.66 129.696 1216.83 129.659 1217 129.656V129.656L1217.31 136.568C1217.54 141.476 1216.96 144.333 1215.43 145.847C1214.33 146.909 1212.9 147.153 1211.32 147.153Z" fill="#1C64A5"/>
<path opacity="0.6" d="M1195.34 144.81H1188.18V146.507H1195.34V144.81Z" fill="#BCBCBC"/>
<path d="M1197.41 108.296L1211.57 112.539L1215.68 88.0885L1203.49 85.2248L1197.41 108.296Z" fill="#1D1D1B"/>
<path d="M1176.79 106.015L1190.41 107.338L1193.79 81.6224L1181.33 79.5047L1176.79 106.015Z" fill="#1D1D1B"/>
<path d="M1193.66 109.403C1191.67 109.065 1189.77 108.339 1188.06 107.266C1186.36 106.193 1184.88 104.794 1183.71 103.149C1182.54 101.505 1181.71 99.6461 1181.26 97.6799C1180.82 95.7137 1180.76 93.6783 1181.1 91.6901L1182.93 82.5674C1183.56 78.8434 1189.14 70.6735 1192.84 71.3026L1209.28 74.9577C1212.98 75.5868 1214.53 78.2418 1213.9 81.9621L1211.47 95.1199C1200.94 109.528 1197.47 109.33 1193.66 109.403Z" fill="url(#paint37_radial_1289_320)"/>
<path d="M1184.37 94.0216C1185.12 94.1494 1185.84 93.6432 1185.96 92.8908C1186.09 92.1385 1185.59 91.4249 1184.83 91.2971C1184.08 91.1692 1183.37 91.6755 1183.24 92.4278C1183.11 93.1802 1183.62 93.8937 1184.37 94.0216Z" fill="#5B5159"/>
<path d="M1208.75 89.0518C1209.18 88.8969 1209.64 88.8548 1210.1 88.9295C1211.92 89.2391 1212.9 91.3977 1212.66 93.7989C1212.27 97.7538 1209.09 98.3598 1207.27 98.0502" fill="#DACEDF"/>
<path d="M1190.18 102.996C1188.97 102.756 1187.85 102.185 1186.95 101.346C1186.89 101.295 1186.84 101.233 1186.81 101.164C1186.78 101.094 1186.76 101.019 1186.75 100.941C1186.75 100.864 1186.76 100.787 1186.79 100.715C1186.82 100.643 1186.86 100.576 1186.91 100.521C1187.01 100.419 1187.14 100.359 1187.29 100.354C1187.43 100.348 1187.57 100.397 1187.68 100.491C1189.44 102.032 1191.17 102.342 1193.1 101.455C1193.23 101.397 1193.38 101.389 1193.51 101.432C1193.64 101.476 1193.76 101.569 1193.82 101.692V101.692C1193.86 101.76 1193.89 101.836 1193.89 101.913C1193.9 101.991 1193.89 102.07 1193.87 102.144C1193.84 102.218 1193.8 102.286 1193.75 102.344C1193.7 102.403 1193.64 102.449 1193.56 102.482C1192.52 102.995 1191.34 103.175 1190.18 102.996V102.996Z" fill="#5B5159"/>
<path d="M1186.54 90.7462L1182.62 90.0787C1182.55 90.064 1182.48 90.0356 1182.42 89.9953C1182.37 89.9551 1182.31 89.9037 1182.28 89.844C1182.24 89.7844 1182.21 89.7177 1182.2 89.6478C1182.19 89.5778 1182.19 89.5061 1182.2 89.4366V89.4366C1182.21 89.3661 1182.23 89.298 1182.27 89.2363C1182.3 89.1746 1182.35 89.1204 1182.41 89.0769C1182.46 89.0334 1182.53 89.0014 1182.6 88.9828C1182.66 88.9641 1182.74 88.9591 1182.81 88.9682L1186.74 89.6369C1186.81 89.6517 1186.88 89.6801 1186.93 89.7203C1186.99 89.7606 1187.04 89.812 1187.08 89.8716C1187.12 89.9313 1187.15 89.9979 1187.16 90.0678C1187.17 90.1377 1187.17 90.2095 1187.16 90.279V90.279C1187.15 90.3502 1187.13 90.4188 1187.09 90.4809C1187.05 90.543 1187.01 90.5973 1186.95 90.6408C1186.89 90.6843 1186.83 90.716 1186.76 90.7341C1186.69 90.7522 1186.62 90.7563 1186.54 90.7462V90.7462Z" fill="#5B5159"/>
<path d="M1215.58 88.6884C1218.58 67.6415 1199.97 67.6086 1195.3 67.1091C1188.03 66.3291 1181.53 72.7318 1181.27 79.7953L1181.22 84.2884L1184.36 84.6843L1187.41 83.0242L1188.19 85.16L1215.05 89.8627L1215.58 88.6884Z" fill="#1D1D1B"/>
<path d="M1183.05 77.4701L1180.99 86.8735L1187.8 82.6643C1190.58 85.4035 1198.77 78.2481 1200.41 84.4652C1201.5 88.5885 1201.82 95.518 1206.34 98.0183C1205.17 94.8497 1207.73 89.214 1213.01 91.0518L1212.79 80.8442L1183.41 75.4175L1183.05 77.4701Z" fill="#1D1D1B"/>
<path opacity="0.6" d="M1193.92 109.132C1193.2 109.045 1192.5 108.847 1191.84 108.545L1191.81 108.427C1194.81 109.671 1203.15 105.445 1206.6 98.833L1208.47 99.1846C1203.7 104.944 1199.62 110.1 1193.92 109.132Z" fill="#BCBCBC"/>
<path d="M1185.19 72.9874C1185.11 73.4501 1186.95 94.4866 1203.55 102.797C1203.55 102.797 1197.66 88.8874 1202.2 80.9345L1185.19 72.9874Z" fill="#1D1D1B"/>
<path d="M1203.33 121.14C1204.09 121.14 1204.72 120.516 1204.72 119.747C1204.72 118.977 1204.09 118.354 1203.33 118.354C1202.56 118.354 1201.93 118.977 1201.93 119.747C1201.93 120.516 1202.56 121.14 1203.33 121.14Z" fill="#075091" fill-opacity="0.33"/>
<path d="M1202.93 116.889C1203.7 116.889 1204.33 116.266 1204.33 115.496C1204.33 114.727 1203.7 114.103 1202.93 114.103C1202.17 114.103 1201.54 114.727 1201.54 115.496C1201.54 116.266 1202.17 116.889 1202.93 116.889Z" fill="#075091" fill-opacity="0.33"/>
<path d="M1189.04 125.173C1189.81 125.173 1190.44 124.549 1190.44 123.78C1190.44 123.01 1189.81 122.386 1189.04 122.386C1188.27 122.386 1187.65 123.01 1187.65 123.78C1187.65 124.549 1188.27 125.173 1189.04 125.173Z" fill="#075091" fill-opacity="0.33"/>
<path d="M1205.44 129.509C1206.21 129.509 1206.83 128.885 1206.83 128.116C1206.83 127.347 1206.21 126.723 1205.44 126.723C1204.67 126.723 1204.05 127.347 1204.05 128.116C1204.05 128.885 1204.67 129.509 1205.44 129.509Z" fill="#075091" fill-opacity="0.33"/>
<path d="M1197.3 130.564C1198.07 130.564 1198.69 129.941 1198.69 129.171C1198.69 128.402 1198.07 127.778 1197.3 127.778C1196.53 127.778 1195.9 128.402 1195.9 129.171C1195.9 129.941 1196.53 130.564 1197.3 130.564Z" fill="#075091" fill-opacity="0.33"/>
<path d="M1212.3 141.87C1213.07 141.87 1213.69 141.247 1213.69 140.477C1213.69 139.708 1213.07 139.084 1212.3 139.084C1211.53 139.084 1210.91 139.708 1210.91 140.477C1210.91 141.247 1211.53 141.87 1212.3 141.87Z" fill="#075091" fill-opacity="0.33"/>
<path d="M1188.55 131.469C1189.32 131.469 1189.95 130.846 1189.95 130.076C1189.95 129.307 1189.32 128.683 1188.55 128.683C1187.78 128.683 1187.16 129.307 1187.16 130.076C1187.16 130.846 1187.78 131.469 1188.55 131.469Z" fill="#075091" fill-opacity="0.33"/>
<path d="M1192.17 135.314C1192.94 135.314 1193.56 134.691 1193.56 133.921C1193.56 133.152 1192.94 132.528 1192.17 132.528C1191.4 132.528 1190.78 133.152 1190.78 133.921C1190.78 134.691 1191.4 135.314 1192.17 135.314Z" fill="#075091" fill-opacity="0.33"/>
<path d="M1208.22 118.5C1208.99 118.5 1209.62 117.876 1209.62 117.107C1209.62 116.338 1208.99 115.714 1208.22 115.714C1207.45 115.714 1206.83 116.338 1206.83 117.107C1206.83 117.876 1207.45 118.5 1208.22 118.5Z" fill="#075091" fill-opacity="0.33"/>
<path d="M1199.41 133.369C1199.93 133.369 1200.35 132.947 1200.35 132.427C1200.35 131.906 1199.93 131.484 1199.41 131.484C1198.89 131.484 1198.47 131.906 1198.47 132.427C1198.47 132.947 1198.89 133.369 1199.41 133.369Z" fill="#075091" fill-opacity="0.33"/>
<path d="M1205.78 136.106C1206.3 136.106 1206.72 135.684 1206.72 135.164C1206.72 134.643 1206.3 134.222 1205.78 134.222C1205.26 134.222 1204.83 134.643 1204.83 135.164C1204.83 135.684 1205.26 136.106 1205.78 136.106Z" fill="#075091" fill-opacity="0.33"/>
<path d="M1199.97 142.062C1200.49 142.062 1200.91 141.64 1200.91 141.119C1200.91 140.599 1200.49 140.177 1199.97 140.177C1199.45 140.177 1199.03 140.599 1199.03 141.119C1199.03 141.64 1199.45 142.062 1199.97 142.062Z" fill="#075091" fill-opacity="0.33"/>
<path d="M1199.37 126.002C1199.89 126.002 1200.31 125.58 1200.31 125.06C1200.31 124.539 1199.89 124.117 1199.37 124.117C1198.85 124.117 1198.43 124.539 1198.43 125.06C1198.43 125.58 1198.85 126.002 1199.37 126.002Z" fill="#075091" fill-opacity="0.33"/>
<path d="M1184.75 123.667C1185.27 123.667 1185.69 123.245 1185.69 122.724C1185.69 122.204 1185.27 121.782 1184.75 121.782C1184.23 121.782 1183.8 122.204 1183.8 122.724C1183.8 123.245 1184.23 123.667 1184.75 123.667Z" fill="#075091" fill-opacity="0.33"/>
<path d="M1188.21 119.371C1188.73 119.371 1189.16 118.949 1189.16 118.429C1189.16 117.908 1188.73 117.486 1188.21 117.486C1187.69 117.486 1187.27 117.908 1187.27 118.429C1187.27 118.949 1187.69 119.371 1188.21 119.371Z" fill="#075091" fill-opacity="0.33"/>
<path d="M1207.66 143.571C1208.18 143.571 1208.6 143.149 1208.6 142.629C1208.6 142.108 1208.18 141.686 1207.66 141.686C1207.14 141.686 1206.72 142.108 1206.72 142.629C1206.72 143.149 1207.14 143.571 1207.66 143.571Z" fill="#075091" fill-opacity="0.33"/>
<path d="M1212.03 134.976C1212.55 134.976 1212.97 134.554 1212.97 134.034C1212.97 133.513 1212.55 133.091 1212.03 133.091C1211.51 133.091 1211.09 133.513 1211.09 134.034C1211.09 134.554 1211.51 134.976 1212.03 134.976Z" fill="#075091" fill-opacity="0.33"/>
<path d="M1183.51 118.369C1184.03 118.369 1184.45 117.947 1184.45 117.426C1184.45 116.906 1184.03 116.484 1183.51 116.484C1182.99 116.484 1182.56 116.906 1182.56 117.426C1182.56 117.947 1182.99 118.369 1183.51 118.369Z" fill="#075091" fill-opacity="0.33"/>
<path d="M1178.94 118.237C1179.46 118.237 1179.88 117.815 1179.88 117.295C1179.88 116.774 1179.46 116.352 1178.94 116.352C1178.42 116.352 1178 116.774 1178 117.295C1178 117.815 1178.42 118.237 1178.94 118.237Z" fill="#075091" fill-opacity="0.33"/>
<path d="M1212.03 121.932C1212.55 121.932 1212.97 121.51 1212.97 120.99C1212.97 120.469 1212.55 120.047 1212.03 120.047C1211.51 120.047 1211.09 120.469 1211.09 120.99C1211.09 121.51 1211.51 121.932 1212.03 121.932Z" fill="#075091" fill-opacity="0.33"/>
<path d="M1186.92 145.341H1207.54C1207.96 145.341 1208.35 145.505 1208.65 145.799C1208.94 146.092 1209.11 146.49 1209.11 146.905C1209.11 147.319 1208.94 147.717 1208.65 148.01C1208.35 148.304 1207.96 148.468 1207.54 148.468H1186.92V145.344V145.341Z" fill="url(#paint38_linear_1289_320)"/>
<path d="M1151.73 124.285L1152.74 122.524C1153.08 121.925 1153.58 121.428 1154.18 121.082C1154.78 120.737 1155.46 120.557 1156.15 120.559L1183.25 120.665C1183.69 120.667 1184.12 120.81 1184.48 121.073C1184.84 121.336 1185.1 121.706 1185.23 122.13L1192.82 145.436C1193.17 148.091 1190.96 148.349 1189.28 148.433L1183.49 124.345C1183.36 123.945 1183.1 123.599 1182.76 123.359C1182.41 123.119 1182 122.999 1181.58 123.017L1151.73 124.285Z" fill="#41166C"/>
<path d="M1189.29 148.468H1160.81C1160.47 148.468 1160.13 148.361 1159.86 148.16C1159.58 147.96 1159.37 147.677 1159.26 147.352L1151.85 125.096C1151.77 124.85 1151.74 124.589 1151.78 124.334C1151.82 124.078 1151.92 123.835 1152.07 123.625C1152.22 123.415 1152.42 123.244 1152.65 123.127C1152.88 123.009 1153.14 122.947 1153.4 122.947H1181.88C1182.22 122.947 1182.55 123.055 1182.83 123.256C1183.11 123.456 1183.31 123.739 1183.42 124.064L1190.84 146.32C1190.93 146.566 1190.95 146.828 1190.91 147.085C1190.87 147.341 1190.77 147.584 1190.62 147.795C1190.47 148.005 1190.27 148.175 1190.03 148.293C1189.8 148.41 1189.55 148.47 1189.29 148.468V148.468Z" fill="url(#paint39_linear_1289_320)"/>
<path opacity="0.8" d="M1174.14 137.377L1173.48 133.961C1173.46 133.857 1173.42 133.76 1173.35 133.678C1173.28 133.596 1173.2 133.532 1173.1 133.492L1169.68 132.083C1169.58 132.04 1169.46 132.025 1169.35 132.04C1169.25 132.054 1169.14 132.097 1169.05 132.164L1166.38 134.183C1166.29 134.254 1166.21 134.351 1166.17 134.462C1166.13 134.572 1166.12 134.693 1166.14 134.81L1166.8 138.222C1166.82 138.326 1166.86 138.423 1166.93 138.505C1167 138.587 1167.08 138.651 1167.18 138.691L1170.6 140.1C1170.71 140.141 1170.82 140.155 1170.93 140.141C1171.03 140.127 1171.14 140.085 1171.22 140.019L1173.9 137.997C1173.99 137.927 1174.07 137.831 1174.11 137.721C1174.15 137.612 1174.16 137.493 1174.14 137.377V137.377Z" fill="#783CAE"/>
</g>
<defs>
<filter id="filter0_f_1289_320" x="228.066" y="137.871" width="47.5895" height="47.5895" filterUnits="userSpaceOnUse" color-interpolation-filters="sRGB">
<feFlood flood-opacity="0" result="BackgroundImageFix"/>
<feBlend mode="normal" in="SourceGraphic" in2="BackgroundImageFix" result="shape"/>
<feGaussianBlur stdDeviation="5.40789" result="effect1_foregroundBlur_1289_320"/>
</filter>
<filter id="filter1_f_1289_320" x="1017.62" y="350.942" width="47.5896" height="47.5895" filterUnits="userSpaceOnUse" color-interpolation-filters="sRGB">
<feFlood flood-opacity="0" result="BackgroundImageFix"/>
<feBlend mode="normal" in="SourceGraphic" in2="BackgroundImageFix" result="shape"/>
<feGaussianBlur stdDeviation="5.40789" result="effect1_foregroundBlur_1289_320"/>
</filter>
<filter id="filter2_d_1289_320" x="1111.72" y="291.59" width="86.5256" height="106.23" filterUnits="userSpaceOnUse" color-interpolation-filters="sRGB">
<feFlood flood-opacity="0" result="BackgroundImageFix"/>
<feColorMatrix in="SourceAlpha" type="matrix" values="0 0 0 0 0 0 0 0 0 0 0 0 0 0 0 0 0 0 127 0" result="hardAlpha"/>
<feOffset dy="4.32632"/>
<feGaussianBlur stdDeviation="5.40789"/>
<feComposite in2="hardAlpha" operator="out"/>
<feColorMatrix type="matrix" values="0 0 0 0 0 0 0 0 0 0 0 0 0 0 0 0 0 0 0.4 0"/>
<feBlend mode="normal" in2="BackgroundImageFix" result="effect1_dropShadow_1289_320"/>
<feBlend mode="normal" in="SourceGraphic" in2="effect1_dropShadow_1289_320" result="shape"/>
</filter>
<filter id="filter3_d_1289_320" x="115.007" y="0.510527" width="91.4245" height="115.293" filterUnits="userSpaceOnUse" color-interpolation-filters="sRGB">
<feFlood flood-opacity="0" result="BackgroundImageFix"/>
<feColorMatrix in="SourceAlpha" type="matrix" values="0 0 0 0 0 0 0 0 0 0 0 0 0 0 0 0 0 0 127 0" result="hardAlpha"/>
<feOffset dy="4.32632"/>
<feGaussianBlur stdDeviation="5.40789"/>
<feComposite in2="hardAlpha" operator="out"/>
<feColorMatrix type="matrix" values="0 0 0 0 0 0 0 0 0 0 0 0 0 0 0 0 0 0 0.4 0"/>
<feBlend mode="normal" in2="BackgroundImageFix" result="effect1_dropShadow_1289_320"/>
<feBlend mode="normal" in="SourceGraphic" in2="effect1_dropShadow_1289_320" result="shape"/>
</filter>
<filter id="filter4_d_1289_320" x="27.0781" y="297.025" width="68.3586" height="112.238" filterUnits="userSpaceOnUse" color-interpolation-filters="sRGB">
<feFlood flood-opacity="0" result="BackgroundImageFix"/>
<feColorMatrix in="SourceAlpha" type="matrix" values="0 0 0 0 0 0 0 0 0 0 0 0 0 0 0 0 0 0 127 0" result="hardAlpha"/>
<feOffset dy="4.32632"/>
<feGaussianBlur stdDeviation="5.40789"/>
<feComposite in2="hardAlpha" operator="out"/>
<feColorMatrix type="matrix" values="0 0 0 0 0 0 0 0 0 0 0 0 0 0 0 0 0 0 0.35 0"/>
<feBlend mode="normal" in2="BackgroundImageFix" result="effect1_dropShadow_1289_320"/>
<feBlend mode="normal" in="SourceGraphic" in2="effect1_dropShadow_1289_320" result="shape"/>
</filter>
<filter id="filter5_d_1289_320" x="142.82" y="275.232" width="70.698" height="103.464" filterUnits="userSpaceOnUse" color-interpolation-filters="sRGB">
<feFlood flood-opacity="0" result="BackgroundImageFix"/>
<feColorMatrix in="SourceAlpha" type="matrix" values="0 0 0 0 0 0 0 0 0 0 0 0 0 0 0 0 0 0 127 0" result="hardAlpha"/>
<feOffset dy="4.32632"/>
<feGaussianBlur stdDeviation="5.40789"/>
<feComposite in2="hardAlpha" operator="out"/>
<feColorMatrix type="matrix" values="0 0 0 0 0 0 0 0 0 0 0 0 0 0 0 0 0 0 0.4 0"/>
<feBlend mode="normal" in2="BackgroundImageFix" result="effect1_dropShadow_1289_320"/>
<feBlend mode="normal" in="SourceGraphic" in2="effect1_dropShadow_1289_320" result="shape"/>
</filter>
<filter id="filter6_d_1289_320" x="1059.48" y="2.67369" width="89.0107" height="115.511" filterUnits="userSpaceOnUse" color-interpolation-filters="sRGB">
<feFlood flood-opacity="0" result="BackgroundImageFix"/>
<feColorMatrix in="SourceAlpha" type="matrix" values="0 0 0 0 0 0 0 0 0 0 0 0 0 0 0 0 0 0 127 0" result="hardAlpha"/>
<feOffset dy="4.32632"/>
<feGaussianBlur stdDeviation="5.40789"/>
<feComposite in2="hardAlpha" operator="out"/>
<feColorMatrix type="matrix" values="0 0 0 0 0 0 0 0 0 0 0 0 0 0 0 0 0 0 0.4 0"/>
<feBlend mode="normal" in2="BackgroundImageFix" result="effect1_dropShadow_1289_320"/>
<feBlend mode="normal" in="SourceGraphic" in2="effect1_dropShadow_1289_320" result="shape"/>
</filter>
<filter id="filter7_d_1289_320" x="1140.92" y="60.555" width="87.6084" height="103.056" filterUnits="userSpaceOnUse" color-interpolation-filters="sRGB">
<feFlood flood-opacity="0" result="BackgroundImageFix"/>
<feColorMatrix in="SourceAlpha" type="matrix" values="0 0 0 0 0 0 0 0 0 0 0 0 0 0 0 0 0 0 127 0" result="hardAlpha"/>
<feOffset dy="4.32632"/>
<feGaussianBlur stdDeviation="5.40789"/>
<feComposite in2="hardAlpha" operator="out"/>
<feColorMatrix type="matrix" values="0 0 0 0 0 0 0 0 0 0 0 0 0 0 0 0 0 0 0.4 0"/>
<feBlend mode="normal" in2="BackgroundImageFix" result="effect1_dropShadow_1289_320"/>
<feBlend mode="normal" in="SourceGraphic" in2="effect1_dropShadow_1289_320" result="shape"/>
</filter>
<linearGradient id="paint0_linear_1289_320" x1="260.848" y1="287.733" x2="260.454" y2="285.09" gradientUnits="userSpaceOnUse">
<stop stop-color="#4BA1FC"/>
<stop offset="1" stop-color="#EC2AED"/>
</linearGradient>
<linearGradient id="paint1_linear_1289_320" x1="262.728" y1="290.328" x2="262.394" y2="287.668" gradientUnits="userSpaceOnUse">
<stop stop-color="#4BA1FC"/>
<stop offset="1" stop-color="#EC2AED"/>
</linearGradient>
<linearGradient id="paint2_linear_1289_320" x1="257.084" y1="292.921" x2="256.473" y2="290.365" gradientUnits="userSpaceOnUse">
<stop stop-color="#4BA1FC"/>
<stop offset="1" stop-color="#EC2AED"/>
</linearGradient>
<linearGradient id="paint3_linear_1289_320" x1="259.195" y1="295.516" x2="258.833" y2="292.863" gradientUnits="userSpaceOnUse">
<stop stop-color="#4BA1FC"/>
<stop offset="1" stop-color="#EC2AED"/>
</linearGradient>
<linearGradient id="paint4_linear_1289_320" x1="1071.51" y1="258.21" x2="1078.36" y2="256.52" gradientUnits="userSpaceOnUse">
<stop stop-color="#FC4760"/>
<stop offset="1" stop-color="#FF67C3"/>
</linearGradient>
<linearGradient id="paint5_linear_1289_320" x1="1062.37" y1="247.249" x2="1055.52" y2="248.939" gradientUnits="userSpaceOnUse">
<stop stop-color="#FC4760"/>
<stop offset="1" stop-color="#FF67C3"/>
</linearGradient>
<linearGradient id="paint6_linear_1289_320" x1="226.646" y1="138.581" x2="216.082" y2="149.145" gradientUnits="userSpaceOnUse">
<stop stop-color="#FEE255"/>
<stop offset="1" stop-color="#FC4320"/>
</linearGradient>
<linearGradient id="paint7_linear_1289_320" x1="1163.12" y1="355.229" x2="1172.94" y2="357.194" gradientUnits="userSpaceOnUse">
<stop stop-color="#F8EAFF"/>
<stop offset="1" stop-color="#BDB1C1"/>
</linearGradient>
<linearGradient id="paint8_linear_1289_320" x1="1165.99" y1="351.325" x2="1166.02" y2="381.909" gradientUnits="userSpaceOnUse">
<stop stop-color="#4998ED"/>
<stop offset="1" stop-color="#256DBA"/>
</linearGradient>
<radialGradient id="paint9_radial_1289_320" cx="0" cy="0" r="1" gradientUnits="userSpaceOnUse" gradientTransform="translate(1152.14 330.033) rotate(53.5713) scale(44.1047 31.386)">
<stop offset="0.291667" stop-color="#F7EAFF"/>
<stop offset="1" stop-color="#B7ACB9"/>
</radialGradient>
<linearGradient id="paint10_linear_1289_320" x1="1163.05" y1="377.121" x2="1163.34" y2="380.71" gradientUnits="userSpaceOnUse">
<stop stop-color="#F8EAFF"/>
<stop offset="1" stop-color="#BDB1C1"/>
</linearGradient>
<linearGradient id="paint11_linear_1289_320" x1="1161.89" y1="383.039" x2="1162.8" y2="377.539" gradientUnits="userSpaceOnUse">
<stop stop-color="#351059"/>
<stop offset="1" stop-color="#1E1D1F"/>
</linearGradient>
<linearGradient id="paint12_linear_1289_320" x1="1130.93" y1="385.621" x2="1153.23" y2="356.668" gradientUnits="userSpaceOnUse">
<stop stop-color="#351059"/>
<stop offset="1" stop-color="#1E1D1F"/>
</linearGradient>
<linearGradient id="paint13_linear_1289_320" x1="148.573" y1="63.6979" x2="148.547" y2="98.0118" gradientUnits="userSpaceOnUse">
<stop stop-color="#4998ED"/>
<stop offset="1" stop-color="#256DBA"/>
</linearGradient>
<radialGradient id="paint14_radial_1289_320" cx="0" cy="0" r="1" gradientUnits="userSpaceOnUse" gradientTransform="translate(166.151 36.2337) rotate(128.15) scale(49.3585 35.7119)">
<stop offset="0.291667" stop-color="#F7EAFF"/>
<stop offset="1" stop-color="#B7ACB9"/>
</radialGradient>
<linearGradient id="paint15_linear_1289_320" x1="132.15" y1="38.0981" x2="153.815" y2="9.27601" gradientUnits="userSpaceOnUse">
<stop stop-color="#783CAD"/>
<stop offset="1" stop-color="#B17EDE"/>
</linearGradient>
<linearGradient id="paint16_linear_1289_320" x1="130.531" y1="39.4013" x2="136.637" y2="18.8291" gradientUnits="userSpaceOnUse">
<stop stop-color="#783CAD"/>
<stop offset="1" stop-color="#B17EDE"/>
</linearGradient>
<linearGradient id="paint17_linear_1289_320" x1="153.289" y1="101.05" x2="152.304" y2="95.1352" gradientUnits="userSpaceOnUse">
<stop stop-color="#351059"/>
<stop offset="1" stop-color="#1E1D1F"/>
</linearGradient>
<linearGradient id="paint18_linear_1289_320" x1="186.578" y1="103.827" x2="162.602" y2="72.6883" gradientUnits="userSpaceOnUse">
<stop stop-color="#351059"/>
<stop offset="1" stop-color="#1E1D1F"/>
</linearGradient>
<linearGradient id="paint19_linear_1289_320" x1="61.9286" y1="358.661" x2="61.904" y2="392.318" gradientUnits="userSpaceOnUse">
<stop stop-color="#4998ED"/>
<stop offset="1" stop-color="#256DBA"/>
</linearGradient>
<linearGradient id="paint20_linear_1289_320" x1="53.4391" y1="368.176" x2="71.9669" y2="332.638" gradientUnits="userSpaceOnUse">
<stop stop-color="#6D5258"/>
<stop offset="1" stop-color="#B899A1"/>
</linearGradient>
<linearGradient id="paint21_linear_1289_320" x1="63.0383" y1="396.742" x2="62.0855" y2="391.023" gradientUnits="userSpaceOnUse">
<stop stop-color="#351059"/>
<stop offset="1" stop-color="#1E1D1F"/>
</linearGradient>
<linearGradient id="paint22_linear_1289_320" x1="95.2289" y1="399.428" x2="72.0449" y2="369.318" gradientUnits="userSpaceOnUse">
<stop stop-color="#351059"/>
<stop offset="1" stop-color="#1E1D1F"/>
</linearGradient>
<linearGradient id="paint23_linear_1289_320" x1="177.73" y1="329.802" x2="187.802" y2="332.875" gradientUnits="userSpaceOnUse">
<stop stop-color="#F8EAFF"/>
<stop offset="1" stop-color="#BDB1C1"/>
</linearGradient>
<linearGradient id="paint24_linear_1289_320" x1="180.818" y1="330.053" x2="180.842" y2="362.959" gradientUnits="userSpaceOnUse">
<stop stop-color="#4998ED"/>
<stop offset="1" stop-color="#256DBA"/>
</linearGradient>
<radialGradient id="paint25_radial_1289_320" cx="0" cy="0" r="1" gradientUnits="userSpaceOnUse" gradientTransform="translate(165.901 307.947) rotate(52.6341) scale(46.1974 33.1893)">
<stop offset="0.291667" stop-color="#F7EAFF"/>
<stop offset="1" stop-color="#B7ACB9"/>
</radialGradient>
<linearGradient id="paint26_linear_1289_320" x1="196.703" y1="306.597" x2="168.14" y2="283.614" gradientUnits="userSpaceOnUse">
<stop stop-color="#783CAD"/>
<stop offset="1" stop-color="#B17EDE"/>
</linearGradient>
<linearGradient id="paint27_linear_1289_320" x1="195" y1="317.606" x2="186.846" y2="295.143" gradientUnits="userSpaceOnUse">
<stop stop-color="#9759CD"/>
<stop offset="1" stop-color="#DFBBFF"/>
</linearGradient>
<linearGradient id="paint28_linear_1289_320" x1="176.371" y1="367.53" x2="177.296" y2="361.976" gradientUnits="userSpaceOnUse">
<stop stop-color="#351059"/>
<stop offset="1" stop-color="#1E1D1F"/>
</linearGradient>
<linearGradient id="paint29_linear_1289_320" x1="145.109" y1="370.139" x2="167.625" y2="340.895" gradientUnits="userSpaceOnUse">
<stop stop-color="#351059"/>
<stop offset="1" stop-color="#1E1D1F"/>
</linearGradient>
<linearGradient id="paint30_linear_1289_320" x1="1092.25" y1="70.0329" x2="1092.23" y2="100.879" gradientUnits="userSpaceOnUse">
<stop stop-color="#4998ED"/>
<stop offset="1" stop-color="#256DBA"/>
</linearGradient>
<linearGradient id="paint31_linear_1289_320" x1="1092.24" y1="66.2688" x2="1092.24" y2="75.264" gradientUnits="userSpaceOnUse">
<stop stop-color="#4998ED"/>
<stop offset="1" stop-color="#256DBA"/>
</linearGradient>
<radialGradient id="paint32_radial_1289_320" cx="0" cy="0" r="1" gradientUnits="userSpaceOnUse" gradientTransform="translate(1106.38 45.3839) rotate(123.337) scale(50.6354 34.6267)">
<stop offset="0.291667" stop-color="#F7EAFF"/>
<stop offset="1" stop-color="#B7ACB9"/>
</radialGradient>
<linearGradient id="paint33_linear_1289_320" x1="1095.91" y1="103.425" x2="1094.94" y2="97.5897" gradientUnits="userSpaceOnUse">
<stop stop-color="#351059"/>
<stop offset="1" stop-color="#1E1D1F"/>
</linearGradient>
<linearGradient id="paint34_linear_1289_320" x1="1128.76" y1="106.165" x2="1105.1" y2="75.4425" gradientUnits="userSpaceOnUse">
<stop stop-color="#351059"/>
<stop offset="1" stop-color="#1E1D1F"/>
</linearGradient>
<linearGradient id="paint35_linear_1289_320" x1="1191.1" y1="112.302" x2="1209.1" y2="126.387" gradientUnits="userSpaceOnUse">
<stop offset="0.291667" stop-color="#F7EAFF"/>
<stop offset="1" stop-color="#B7ACB9"/>
</linearGradient>
<linearGradient id="paint36_linear_1289_320" x1="1194.78" y1="112.113" x2="1194.8" y2="146.788" gradientUnits="userSpaceOnUse">
<stop stop-color="#4998ED"/>
<stop offset="1" stop-color="#256DBA"/>
</linearGradient>
<radialGradient id="paint37_radial_1289_320" cx="0" cy="0" r="1" gradientUnits="userSpaceOnUse" gradientTransform="translate(1182.92 90.0237) rotate(58.6016) scale(44.9935 33.1883)">
<stop offset="0.291667" stop-color="#F7EAFF"/>
<stop offset="1" stop-color="#B7ACB9"/>
</radialGradient>
<linearGradient id="paint38_linear_1289_320" x1="1191.75" y1="148.835" x2="1192.68" y2="143.244" gradientUnits="userSpaceOnUse">
<stop stop-color="#351059"/>
<stop offset="1" stop-color="#1E1D1F"/>
</linearGradient>
<linearGradient id="paint39_linear_1289_320" x1="1160.28" y1="151.461" x2="1182.94" y2="122.025" gradientUnits="userSpaceOnUse">
<stop stop-color="#351059"/>
<stop offset="1" stop-color="#1E1D1F"/>
</linearGradient>
<clipPath id="clip0_1289_320">
<rect width="17.0909" height="9.89471" fill="white" transform="matrix(-1 0 0 1 1092.24 84.7086)"/>
</clipPath>
</defs>
</svg>
