<?xml version="1.0" encoding="utf-8"?>
<!-- Generator: Adobe Illustrator 26.0.3, SVG Export Plug-In . SVG Version: 6.00 Build 0)  -->
<svg version="1.1" id="Layer_1" xmlns="http://www.w3.org/2000/svg" xmlns:xlink="http://www.w3.org/1999/xlink" x="0px" y="0px"
	 viewBox="0 0 1080 1080" style="enable-background:new 0 0 1080 1080;" xml:space="preserve">
<style type="text/css">
	.st0{fill:#4F46E5;}
</style>
<path class="st0" d="M970.26,258.66L568.52,26.71c-17.65-10.19-39.39-10.19-57.04,0l-33.32,19.24
	c-6.73,3.89-10.88,11.07-10.88,18.85v81.46c0,16.75,18.14,27.23,32.65,18.85l29.19-16.85c6.73-3.89,15.03-3.89,21.76,0L873.83,334.7
	c6.73,3.89,10.88,11.07,10.88,18.85v372.9c0,7.78-4.15,14.96-10.88,18.85l-91.42,52.78V370.63l-64.17-34.06l-5.07-2.71
	c-20.12-10.78-45.36,2.48-46.68,25.27c-0.04,0.66-0.06,1.33-0.06,2v114.23H414.05V207.07v-17.05v-55.34
	c0-22.99-24.88-37.35-44.79-25.86L109.74,258.66c-17.65,10.19-28.52,29.02-28.52,49.4v463.89c0,20.38,10.87,39.21,28.52,49.39
	l401.74,231.95c8.82,5.09,18.67,7.64,28.52,7.64s19.7-2.55,28.52-7.64l38.56-22.26c4.08-2.36,6.6-6.71,6.6-11.42V918.35
	c0-10.16-10.99-16.5-19.79-11.42l-47.29,27.3c-4.08,2.36-9.11,2.36-13.19,0l-331.52-191.4c-4.08-2.36-6.6-6.71-6.6-11.42V348.6
	c0-4.71,2.51-9.07,6.6-11.42l96.18-55.53v403.67v16.45l9.51,5.55l57.04,32.32l1.98,1.22c19.72,12.2,46.05-0.63,47.39-23.78
	c0.04-0.66,0.06-1.33,0.06-2V591.33h252.39v298.65c0,1.86,0.19,3.67,0.48,5.44v63.36c0,16.75,18.14,27.23,32.65,18.85l270.71-156.29
	c17.65-10.19,28.52-29.02,28.52-49.39V308.05C998.78,287.68,987.91,268.85,970.26,258.66z"/>
</svg>
